<svg width="64" height="64" viewBox="0 0 64 64" fill="none" xmlns="http://www.w3.org/2000/svg">
<g clip-path="url(#clip0_3478_29047)">
<path d="M0 0H64V21.3375H0V0Z" fill="#FF9933"/>
<path d="M0 21.3374H64V42.6624H0V21.3374Z" fill="white"/>
<path d="M0 42.6626H64V64.0001H0V42.6626Z" fill="#128807"/>
<path d="M32 40.5334C36.7128 40.5334 40.5333 36.7129 40.5333 32.0001C40.5333 27.2873 36.7128 23.4668 32 23.4668C27.2872 23.4668 23.4667 27.2873 23.4667 32.0001C23.4667 36.7129 27.2872 40.5334 32 40.5334Z" fill="#000088"/>
<path d="M32 39.4665C36.1237 39.4665 39.4666 36.1236 39.4666 31.9999C39.4666 27.8761 36.1237 24.5332 32 24.5332C27.8763 24.5332 24.5333 27.8761 24.5333 31.9999C24.5333 36.1236 27.8763 39.4665 32 39.4665Z" fill="white"/>
<path d="M31.9999 33.4935C32.8247 33.4935 33.4933 32.8249 33.4933 32.0002C33.4933 31.1754 32.8247 30.5068 31.9999 30.5068C31.1752 30.5068 30.5066 31.1754 30.5066 32.0002C30.5066 32.8249 31.1752 33.4935 31.9999 33.4935Z" fill="#000088"/>
<path d="M39.3525 33.3579C39.5628 33.3856 39.7556 33.2376 39.7833 33.0273C39.811 32.8171 39.663 32.6242 39.4527 32.5965C39.2425 32.5688 39.0496 32.7168 39.0219 32.9271C38.9942 33.1374 39.1422 33.3303 39.3525 33.3579Z" fill="#000088"/>
<path d="M32 39.4664L32.256 34.9864L32 32.853L31.744 34.9864L32 39.4664Z" fill="#000088"/>
<path d="M38.7504 35.2144C38.9464 35.2956 39.171 35.2025 39.2522 35.0066C39.3333 34.8106 39.2403 34.586 39.0443 34.5049C38.8484 34.4237 38.6238 34.5167 38.5426 34.7127C38.4615 34.9086 38.5545 35.1332 38.7504 35.2144Z" fill="#000088"/>
<path d="M30.0675 39.2121L31.4743 34.951L31.7791 32.8241L30.9797 34.8185L30.0675 39.2121Z" fill="#000088"/>
<path d="M37.6886 36.8523C37.8568 36.9814 38.0979 36.9497 38.227 36.7815C38.3561 36.6132 38.3243 36.3721 38.1561 36.243C37.9878 36.1139 37.7468 36.1457 37.6177 36.3139C37.4886 36.4822 37.5203 36.7232 37.6886 36.8523Z" fill="#000088"/>
<path d="M28.2667 38.4661L30.7284 34.7144L31.5734 32.7388L30.285 34.4584L28.2667 38.4661Z" fill="#000088"/>
<path d="M36.2388 38.1589C36.368 38.3271 36.609 38.3589 36.7773 38.2298C36.9455 38.1007 36.9772 37.8596 36.8481 37.6914C36.719 37.5231 36.478 37.4914 36.3097 37.6205C36.1415 37.7496 36.1097 37.9906 36.2388 38.1589Z" fill="#000088"/>
<path d="M26.7204 37.2792L30.0692 34.2924L31.3967 32.6029L29.7072 33.9304L26.7204 37.2792Z" fill="#000088"/>
<path d="M34.5003 39.0461C34.5814 39.2421 34.8061 39.3351 35.002 39.254C35.1979 39.1728 35.291 38.9482 35.2098 38.7522C35.1287 38.5563 34.904 38.4633 34.7081 38.5444C34.5122 38.6256 34.4191 38.8502 34.5003 39.0461Z" fill="#000088"/>
<path d="M25.5339 35.733L29.5417 33.7147L31.2612 32.4263L29.2857 33.2713L25.5339 35.733Z" fill="#000088"/>
<path d="M32.5912 39.4531C32.6189 39.6634 32.8118 39.8114 33.022 39.7837C33.2323 39.756 33.3803 39.5631 33.3526 39.3529C33.3249 39.1426 33.132 38.9946 32.9218 39.0223C32.7115 39.05 32.5635 39.2429 32.5912 39.4531Z" fill="#000088"/>
<path d="M24.7878 33.9326L29.1814 33.0203L31.1758 32.2209L29.0489 32.5258L24.7878 33.9326Z" fill="#000088"/>
<path d="M30.6419 39.3522C30.6143 39.5625 30.7623 39.7554 30.9725 39.7831C31.1828 39.8108 31.3757 39.6628 31.4034 39.4525C31.4311 39.2422 31.283 39.0493 31.0728 39.0217C30.8625 38.994 30.6696 39.142 30.6419 39.3522Z" fill="#000088"/>
<path d="M24.5334 31.9997L29.0134 32.2557L31.1467 31.9997L29.0134 31.7437L24.5334 31.9997Z" fill="#000088"/>
<path d="M28.7852 38.7498C28.7041 38.9458 28.7971 39.1704 28.9931 39.2516C29.189 39.3327 29.4136 39.2397 29.4948 39.0437C29.5759 38.8478 29.4829 38.6232 29.287 38.542C29.091 38.4609 28.8664 38.5539 28.7852 38.7498Z" fill="#000088"/>
<path d="M24.7877 30.0669L29.0488 31.4737L31.1757 31.7785L29.1813 30.9791L24.7877 30.0669Z" fill="#000088"/>
<path d="M27.1475 37.6877C27.0184 37.856 27.0502 38.097 27.2184 38.2261C27.3867 38.3552 27.6277 38.3235 27.7568 38.1552C27.8859 37.987 27.8542 37.7459 27.686 37.6168C27.5177 37.4877 27.2766 37.5195 27.1475 37.6877Z" fill="#000088"/>
<path d="M25.5337 28.2661L29.2855 30.7278L31.261 31.5728L29.5415 30.2844L25.5337 28.2661Z" fill="#000088"/>
<path d="M25.8406 36.2382C25.6724 36.3673 25.6406 36.6084 25.7697 36.7767C25.8988 36.9449 26.1399 36.9766 26.3081 36.8475C26.4764 36.7184 26.5081 36.4774 26.379 36.3091C26.2499 36.1409 26.0089 36.1091 25.8406 36.2382Z" fill="#000088"/>
<path d="M26.7203 26.72L29.7071 30.0689L31.3966 31.3964L30.0691 29.7068L26.7203 26.72Z" fill="#000088"/>
<path d="M24.9535 34.4994C24.7576 34.5806 24.6645 34.8052 24.7457 35.0011C24.8268 35.1971 25.0515 35.2901 25.2474 35.209C25.4433 35.1278 25.5364 34.9032 25.4552 34.7072C25.3741 34.5113 25.1494 34.4183 24.9535 34.4994Z" fill="#000088"/>
<path d="M28.2667 25.533L30.285 29.5408L31.5733 31.2603L30.7284 29.2848L28.2667 25.533Z" fill="#000088"/>
<path d="M24.5465 32.5905C24.3362 32.6181 24.1882 32.811 24.2159 33.0213C24.2436 33.2316 24.4365 33.3796 24.6468 33.3519C24.857 33.3242 25.005 33.1313 24.9773 32.921C24.9497 32.7108 24.7568 32.5628 24.5465 32.5905Z" fill="#000088"/>
<path d="M30.0676 24.7872L30.9798 29.1808L31.7792 31.1751L31.4743 29.0482L30.0676 24.7872Z" fill="#000088"/>
<path d="M24.6475 30.6416C24.4372 30.6139 24.2444 30.7619 24.2167 30.9722C24.189 31.1824 24.337 31.3753 24.5473 31.403C24.7575 31.4307 24.9504 31.2827 24.9781 31.0724C25.0058 30.8621 24.8578 30.6693 24.6475 30.6416Z" fill="#000088"/>
<path d="M32 24.5332L31.744 29.0132L32 31.1465L32.256 29.0132L32 24.5332Z" fill="#000088"/>
<path d="M25.2496 28.7851C25.0536 28.704 24.829 28.797 24.7478 28.9929C24.6667 29.1889 24.7597 29.4135 24.9557 29.4947C25.1516 29.5758 25.3762 29.4828 25.4574 29.2868C25.5385 29.0909 25.4455 28.8663 25.2496 28.7851Z" fill="#000088"/>
<path d="M33.9325 24.7875L32.5257 29.0485L32.2209 31.1754L33.0203 29.1811L33.9325 24.7875Z" fill="#000088"/>
<path d="M26.3114 27.1472C26.1432 27.0181 25.9021 27.0498 25.773 27.2181C25.6439 27.3863 25.6757 27.6274 25.8439 27.7565C26.0122 27.8856 26.2532 27.8538 26.3823 27.6856C26.5114 27.5173 26.4797 27.2763 26.3114 27.1472Z" fill="#000088"/>
<path d="M35.7333 25.5334L33.2716 29.2852L32.4266 31.2607L33.715 29.5412L35.7333 25.5334Z" fill="#000088"/>
<path d="M27.7612 25.8406C27.632 25.6724 27.391 25.6406 27.2227 25.7697C27.0545 25.8988 27.0228 26.1399 27.1519 26.3081C27.281 26.4764 27.522 26.5081 27.6903 26.379C27.8585 26.2499 27.8903 26.0089 27.7612 25.8406Z" fill="#000088"/>
<path d="M37.2796 26.7203L33.9308 29.7071L32.6033 31.3966L34.2928 30.0691L37.2796 26.7203Z" fill="#000088"/>
<path d="M29.4997 24.9534C29.4186 24.7574 29.1939 24.6644 28.998 24.7456C28.8021 24.8267 28.709 25.0513 28.7902 25.2473C28.8713 25.4432 29.096 25.5363 29.2919 25.4551C29.4878 25.3739 29.5809 25.1493 29.4997 24.9534Z" fill="#000088"/>
<path d="M38.4661 28.2666L34.4583 30.2849L32.7388 31.5732L34.7143 30.7283L38.4661 28.2666Z" fill="#000088"/>
<path d="M31.4088 24.5464C31.3811 24.3361 31.1882 24.1881 30.978 24.2158C30.7677 24.2435 30.6197 24.4364 30.6474 24.6466C30.6751 24.8569 30.868 25.0049 31.0782 24.9772C31.2885 24.9495 31.4365 24.7566 31.4088 24.5464Z" fill="#000088"/>
<path d="M39.2122 30.0669L34.8186 30.9792L32.8242 31.7786L34.9511 31.4737L39.2122 30.0669Z" fill="#000088"/>
<path d="M33.3581 24.6473C33.3857 24.437 33.2377 24.2441 33.0275 24.2164C32.8172 24.1887 32.6243 24.3368 32.5966 24.547C32.5689 24.7573 32.717 24.9502 32.9272 24.9779C33.1375 25.0055 33.3304 24.8575 33.3581 24.6473Z" fill="#000088"/>
<path d="M39.4666 31.9999L34.9866 31.7439L32.8533 31.9999L34.9866 32.2559L39.4666 31.9999Z" fill="#000088"/>
<path d="M35.2148 25.2497C35.2959 25.0537 35.2029 24.8291 35.0069 24.748C34.811 24.6668 34.5864 24.7598 34.5052 24.9558C34.4241 25.1517 34.5171 25.3763 34.713 25.4575C34.909 25.5387 35.1336 25.4456 35.2148 25.2497Z" fill="#000088"/>
<path d="M39.2123 33.9326L34.9512 32.5259L32.8243 32.221L34.8187 33.0204L39.2123 33.9326Z" fill="#000088"/>
<path d="M36.8525 26.3118C36.9816 26.1436 36.9498 25.9025 36.7816 25.7734C36.6133 25.6443 36.3723 25.676 36.2432 25.8443C36.1141 26.0125 36.1458 26.2536 36.314 26.3827C36.4823 26.5118 36.7234 26.4801 36.8525 26.3118Z" fill="#000088"/>
<path d="M38.4663 35.7334L34.7145 33.2717L32.739 32.4267L34.4585 33.7151L38.4663 35.7334Z" fill="#000088"/>
<path d="M38.1594 27.7613C38.3276 27.6322 38.3594 27.3911 38.2303 27.2229C38.1012 27.0546 37.8601 27.0229 37.6919 27.152C37.5236 27.2811 37.4919 27.5221 37.621 27.6904C37.7501 27.8586 37.9911 27.8904 38.1594 27.7613Z" fill="#000088"/>
<path d="M37.2797 37.2795L34.2929 33.9306L32.6034 32.6032L33.9309 34.2927L37.2797 37.2795Z" fill="#000088"/>
<path d="M39.0465 29.5001C39.2424 29.4189 39.3355 29.1943 39.2543 28.9984C39.1732 28.8024 38.9485 28.7094 38.7526 28.7905C38.5567 28.8717 38.4636 29.0963 38.5448 29.2923C38.6259 29.4882 38.8506 29.5812 39.0465 29.5001Z" fill="#000088"/>
<path d="M35.7333 38.4665L33.715 34.4587L32.4267 32.7392L33.2716 34.7147L35.7333 38.4665Z" fill="#000088"/>
<path d="M39.4535 31.4091C39.6638 31.3814 39.8118 31.1885 39.7841 30.9782C39.7564 30.768 39.5635 30.62 39.3532 30.6476C39.143 30.6753 38.995 30.8682 39.0227 31.0785C39.0503 31.2887 39.2432 31.4367 39.4535 31.4091Z" fill="#000088"/>
<path d="M33.9324 39.2124L33.0202 34.8187L32.2208 32.8244L32.5257 34.9513L33.9324 39.2124Z" fill="#000088"/>
</g>
<defs>
<clipPath id="clip0_3478_29047">
<rect width="64" height="64" fill="white"/>
</clipPath>
</defs>
</svg>
