<svg width="64" height="64" viewBox="0 0 64 64" fill="none" xmlns="http://www.w3.org/2000/svg">
<g clip-path="url(#clip0_6271_25224)">
<path d="M0 0H64V21.3375H0V0Z" fill="#FF9933"/>
<path d="M0 21.3374H64V42.6624H0V21.3374Z" fill="white"/>
<path d="M0 42.6626H64V64.0001H0V42.6626Z" fill="#128807"/>
<path d="M32.0001 40.5334C36.7129 40.5334 40.5334 36.7129 40.5334 32.0001C40.5334 27.2873 36.7129 23.4668 32.0001 23.4668C27.2873 23.4668 23.4668 27.2873 23.4668 32.0001C23.4668 36.7129 27.2873 40.5334 32.0001 40.5334Z" fill="#000088"/>
<path d="M31.9999 39.4665C36.1236 39.4665 39.4665 36.1236 39.4665 31.9999C39.4665 27.8761 36.1236 24.5332 31.9999 24.5332C27.8761 24.5332 24.5332 27.8761 24.5332 31.9999C24.5332 36.1236 27.8761 39.4665 31.9999 39.4665Z" fill="white"/>
<path d="M32.0002 33.4935C32.8249 33.4935 33.4935 32.8249 33.4935 32.0002C33.4935 31.1754 32.8249 30.5068 32.0002 30.5068C31.1754 30.5068 30.5068 31.1754 30.5068 32.0002C30.5068 32.8249 31.1754 33.4935 32.0002 33.4935Z" fill="#000088"/>
<path d="M39.3522 33.3579C39.5625 33.3856 39.7554 33.2376 39.7831 33.0273C39.8108 32.8171 39.6628 32.6242 39.4525 32.5965C39.2422 32.5688 39.0493 32.7168 39.0217 32.9271C38.994 33.1374 39.142 33.3303 39.3522 33.3579Z" fill="#000088"/>
<path d="M31.9997 39.4664L32.2557 34.9864L31.9997 32.853L31.7437 34.9864L31.9997 39.4664Z" fill="#000088"/>
<path d="M38.7498 35.2144C38.9458 35.2956 39.1704 35.2025 39.2516 35.0066C39.3327 34.8106 39.2397 34.586 39.0437 34.5049C38.8478 34.4237 38.6232 34.5167 38.542 34.7127C38.4609 34.9086 38.5539 35.1332 38.7498 35.2144Z" fill="#000088"/>
<path d="M30.0669 39.2121L31.4737 34.951L31.7785 32.8241L30.9791 34.8185L30.0669 39.2121Z" fill="#000088"/>
<path d="M37.6882 36.8523C37.8564 36.9814 38.0975 36.9497 38.2266 36.7815C38.3557 36.6132 38.324 36.3721 38.1557 36.243C37.9875 36.1139 37.7464 36.1457 37.6173 36.3139C37.4882 36.4822 37.5199 36.7232 37.6882 36.8523Z" fill="#000088"/>
<path d="M28.2666 38.4661L30.7283 34.7144L31.5733 32.7388L30.2849 34.4584L28.2666 38.4661Z" fill="#000088"/>
<path d="M36.2387 38.1589C36.3678 38.3271 36.6089 38.3589 36.7771 38.2298C36.9454 38.1007 36.9771 37.8596 36.848 37.6914C36.7189 37.5231 36.4779 37.4914 36.3096 37.6205C36.1414 37.7496 36.1096 37.9906 36.2387 38.1589Z" fill="#000088"/>
<path d="M26.7205 37.2792L30.0694 34.2924L31.3968 32.6029L29.7073 33.9304L26.7205 37.2792Z" fill="#000088"/>
<path d="M34.4999 39.0461C34.5811 39.2421 34.8057 39.3351 35.0016 39.254C35.1976 39.1728 35.2906 38.9482 35.2095 38.7522C35.1283 38.5563 34.9037 38.4633 34.7077 38.5444C34.5118 38.6256 34.4188 38.8502 34.4999 39.0461Z" fill="#000088"/>
<path d="M25.5335 35.733L29.5413 33.7147L31.2608 32.4263L29.2853 33.2713L25.5335 35.733Z" fill="#000088"/>
<path d="M32.5909 39.4531C32.6186 39.6634 32.8115 39.8114 33.0218 39.7837C33.232 39.756 33.38 39.5631 33.3524 39.3529C33.3247 39.1426 33.1318 38.9946 32.9215 39.0223C32.7113 39.05 32.5633 39.2429 32.5909 39.4531Z" fill="#000088"/>
<path d="M24.7876 33.9326L29.1813 33.0203L31.1756 32.2209L29.0487 32.5258L24.7876 33.9326Z" fill="#000088"/>
<path d="M30.6416 39.3522C30.6139 39.5625 30.7619 39.7554 30.9722 39.7831C31.1824 39.8108 31.3753 39.6628 31.403 39.4525C31.4307 39.2422 31.2827 39.0493 31.0724 39.0217C30.8621 38.994 30.6693 39.142 30.6416 39.3522Z" fill="#000088"/>
<path d="M24.5332 31.9997L29.0132 32.2557L31.1465 31.9997L29.0132 31.7437L24.5332 31.9997Z" fill="#000088"/>
<path d="M28.7851 38.7498C28.704 38.9458 28.797 39.1704 28.9929 39.2516C29.1889 39.3327 29.4135 39.2397 29.4947 39.0437C29.5758 38.8478 29.4828 38.6232 29.2868 38.542C29.0909 38.4609 28.8663 38.5539 28.7851 38.7498Z" fill="#000088"/>
<path d="M24.7875 30.0669L29.0485 31.4737L31.1754 31.7785L29.1811 30.9791L24.7875 30.0669Z" fill="#000088"/>
<path d="M27.1477 37.6877C27.0186 37.856 27.0503 38.097 27.2185 38.2261C27.3868 38.3552 27.6279 38.3235 27.757 38.1552C27.8861 37.987 27.8543 37.7459 27.6861 37.6168C27.5178 37.4877 27.2768 37.5195 27.1477 37.6877Z" fill="#000088"/>
<path d="M25.5339 28.2661L29.2856 30.7278L31.2612 31.5728L29.5416 30.2844L25.5339 28.2661Z" fill="#000088"/>
<path d="M25.8411 36.2382C25.6729 36.3673 25.6411 36.6084 25.7702 36.7767C25.8993 36.9449 26.1404 36.9766 26.3086 36.8475C26.4769 36.7184 26.5086 36.4774 26.3795 36.3091C26.2504 36.1409 26.0094 36.1091 25.8411 36.2382Z" fill="#000088"/>
<path d="M26.7208 26.72L29.7076 30.0689L31.3971 31.3964L30.0696 29.7068L26.7208 26.72Z" fill="#000088"/>
<path d="M24.9539 34.4994C24.7579 34.5806 24.6649 34.8052 24.7461 35.0011C24.8272 35.1971 25.0518 35.2901 25.2478 35.209C25.4437 35.1278 25.5367 34.9032 25.4556 34.7072C25.3744 34.5113 25.1498 34.4183 24.9539 34.4994Z" fill="#000088"/>
<path d="M28.267 25.533L30.2853 29.5408L31.5737 31.2603L30.7287 29.2848L28.267 25.533Z" fill="#000088"/>
<path d="M24.5469 32.5905C24.3366 32.6181 24.1886 32.811 24.2163 33.0213C24.244 33.2316 24.4369 33.3796 24.6471 33.3519C24.8574 33.3242 25.0054 33.1313 24.9777 32.921C24.95 32.7108 24.7571 32.5628 24.5469 32.5905Z" fill="#000088"/>
<path d="M30.0674 24.7872L30.9797 29.1808L31.7791 31.1751L31.4742 29.0482L30.0674 24.7872Z" fill="#000088"/>
<path d="M24.6478 30.6416C24.4375 30.6139 24.2446 30.7619 24.2169 30.9722C24.1892 31.1824 24.3372 31.3753 24.5475 31.403C24.7578 31.4307 24.9507 31.2827 24.9783 31.0724C25.006 30.8621 24.858 30.6693 24.6478 30.6416Z" fill="#000088"/>
<path d="M32.0003 24.5332L31.7443 29.0132L32.0003 31.1465L32.2563 29.0132L32.0003 24.5332Z" fill="#000088"/>
<path d="M25.2502 28.7851C25.0542 28.704 24.8296 28.797 24.7484 28.9929C24.6673 29.1889 24.7603 29.4135 24.9563 29.4947C25.1522 29.5758 25.3768 29.4828 25.458 29.2868C25.5391 29.0909 25.4461 28.8663 25.2502 28.7851Z" fill="#000088"/>
<path d="M33.9331 24.7875L32.5263 29.0485L32.2215 31.1754L33.0209 29.1811L33.9331 24.7875Z" fill="#000088"/>
<path d="M26.3118 27.1472C26.1436 27.0181 25.9025 27.0498 25.7734 27.2181C25.6443 27.3863 25.676 27.6274 25.8443 27.7565C26.0125 27.8856 26.2536 27.8538 26.3827 27.6856C26.5118 27.5173 26.4801 27.2763 26.3118 27.1472Z" fill="#000088"/>
<path d="M35.7334 25.5334L33.2717 29.2852L32.4267 31.2607L33.7151 29.5412L35.7334 25.5334Z" fill="#000088"/>
<path d="M27.7613 25.8406C27.6322 25.6724 27.3911 25.6406 27.2229 25.7697C27.0546 25.8988 27.0229 26.1399 27.152 26.3081C27.2811 26.4764 27.5221 26.5081 27.6904 26.379C27.8586 26.2499 27.8904 26.0089 27.7613 25.8406Z" fill="#000088"/>
<path d="M37.2795 26.7203L33.9306 29.7071L32.6032 31.3966L34.2927 30.0691L37.2795 26.7203Z" fill="#000088"/>
<path d="M29.5001 24.9534C29.4189 24.7574 29.1943 24.6644 28.9984 24.7456C28.8024 24.8267 28.7094 25.0513 28.7905 25.2473C28.8717 25.4432 29.0963 25.5363 29.2923 25.4551C29.4882 25.3739 29.5812 25.1493 29.5001 24.9534Z" fill="#000088"/>
<path d="M38.4665 28.2666L34.4587 30.2849L32.7392 31.5732L34.7147 30.7283L38.4665 28.2666Z" fill="#000088"/>
<path d="M31.4091 24.5464C31.3814 24.3361 31.1885 24.1881 30.9782 24.2158C30.768 24.2435 30.62 24.4364 30.6476 24.6466C30.6753 24.8569 30.8682 25.0049 31.0785 24.9772C31.2887 24.9495 31.4367 24.7566 31.4091 24.5464Z" fill="#000088"/>
<path d="M39.2124 30.0669L34.8187 30.9792L32.8244 31.7786L34.9513 31.4737L39.2124 30.0669Z" fill="#000088"/>
<path d="M33.3584 24.6473C33.3861 24.437 33.2381 24.2441 33.0278 24.2164C32.8176 24.1887 32.6247 24.3368 32.597 24.547C32.5693 24.7573 32.7173 24.9502 32.9276 24.9779C33.1379 25.0055 33.3307 24.8575 33.3584 24.6473Z" fill="#000088"/>
<path d="M39.4668 31.9999L34.9868 31.7439L32.8535 31.9999L34.9868 32.2559L39.4668 31.9999Z" fill="#000088"/>
<path d="M35.2149 25.2497C35.296 25.0537 35.203 24.8291 35.0071 24.748C34.8111 24.6668 34.5865 24.7598 34.5053 24.9558C34.4242 25.1517 34.5172 25.3763 34.7132 25.4575C34.9091 25.5387 35.1337 25.4456 35.2149 25.2497Z" fill="#000088"/>
<path d="M39.2125 33.9326L34.9515 32.5259L32.8246 32.221L34.8189 33.0204L39.2125 33.9326Z" fill="#000088"/>
<path d="M36.8528 26.3118C36.9819 26.1436 36.9502 25.9025 36.7819 25.7734C36.6137 25.6443 36.3726 25.676 36.2435 25.8443C36.1144 26.0125 36.1462 26.2536 36.3144 26.3827C36.4827 26.5118 36.7237 26.4801 36.8528 26.3118Z" fill="#000088"/>
<path d="M38.4666 35.7334L34.7148 33.2717L32.7393 32.4267L34.4588 33.7151L38.4666 35.7334Z" fill="#000088"/>
<path d="M38.1594 27.7613C38.3276 27.6322 38.3594 27.3911 38.2303 27.2229C38.1012 27.0546 37.8601 27.0229 37.6919 27.152C37.5236 27.2811 37.4919 27.5221 37.621 27.6904C37.7501 27.8586 37.9911 27.8904 38.1594 27.7613Z" fill="#000088"/>
<path d="M37.2797 37.2795L34.2929 33.9306L32.6034 32.6032L33.9309 34.2927L37.2797 37.2795Z" fill="#000088"/>
<path d="M39.0466 29.5001C39.2426 29.4189 39.3356 29.1943 39.2544 28.9984C39.1733 28.8024 38.9487 28.7094 38.7527 28.7905C38.5568 28.8717 38.4637 29.0963 38.5449 29.2923C38.6261 29.4882 38.8507 29.5812 39.0466 29.5001Z" fill="#000088"/>
<path d="M35.7334 38.4665L33.7151 34.4587L32.4268 32.7392L33.2717 34.7147L35.7334 38.4665Z" fill="#000088"/>
<path d="M39.4536 31.4091C39.6639 31.3814 39.8119 31.1885 39.7842 30.9782C39.7565 30.768 39.5636 30.62 39.3534 30.6476C39.1431 30.6753 38.9951 30.8682 39.0228 31.0785C39.0505 31.2887 39.2434 31.4367 39.4536 31.4091Z" fill="#000088"/>
<path d="M33.9331 39.2124L33.0208 34.8187L32.2214 32.8244L32.5263 34.9513L33.9331 39.2124Z" fill="#000088"/>
</g>
<defs>
<clipPath id="clip0_6271_25224">
<rect width="64" height="64" fill="white"/>
</clipPath>
</defs>
</svg>
