<svg width="64" height="64" viewBox="0 0 64 64" fill="none" xmlns="http://www.w3.org/2000/svg">
<g clip-path="url(#clip0_3478_29036)">
<path d="M0 0H64V64H0V0Z" fill="#CC0000"/>
<path d="M0.0500488 5.3125H63.9501V10.4375H0.0500488V5.3125ZM0.0500488 15.8125H63.9501V20.9375H0.0500488V15.8125ZM0.0500488 26.325H63.9501V31.45H0.0500488V26.325Z" fill="white"/>
<path d="M0 0H32V37.3375H0V0Z" fill="#000066"/>
<path d="M21.5625 10.85L22.2625 15.625L24.9625 11.625L23.5125 16.225L27.675 13.8L24.375 17.3125L29.1875 16.9375L24.6875 18.6625L29.1875 20.4125L24.375 20.025L27.675 23.525L23.5 21.125L24.95 25.7125L22.25 21.725L21.55 26.4875L20.85 21.7375L18.1625 25.7125L19.6 21.125L15.45 23.55L18.7375 20.0375L13.9375 20.4125L18.4375 18.675L13.9375 16.9375L18.7375 17.325L15.45 13.8125L19.6 16.2375L18.175 11.625L20.8625 15.625L21.5625 10.85ZM17.6625 11.05C16.3932 10.4857 15.0029 10.2476 13.6181 10.3572C12.2333 10.4668 10.8978 10.9207 9.73296 11.6777C8.56815 12.4346 7.61094 13.4706 6.94828 14.6915C6.28562 15.9124 5.93852 17.2796 5.93852 18.6687C5.93852 20.0579 6.28562 21.425 6.94828 22.6459C7.61094 23.8668 8.56815 24.9028 9.73296 25.6597C10.8978 26.4167 12.2333 26.8706 13.6181 26.9802C15.0029 27.0898 16.3932 26.8517 17.6625 26.2875C16.2615 27.2921 14.6106 27.8909 12.8913 28.0181C11.172 28.1454 9.45092 27.796 7.91728 27.0086C6.38364 26.2211 5.09683 25.026 4.19833 23.5547C3.29984 22.0833 2.82446 20.3927 2.82446 18.6687C2.82446 16.9447 3.29984 15.2541 4.19833 13.7827C5.09683 12.3114 6.38364 11.1163 7.91728 10.3288C9.45092 9.54137 11.172 9.19204 12.8913 9.31927C14.6106 9.44649 16.2615 10.0453 17.6625 11.05Z" fill="#FFCC00"/>
<path d="M0.05 36.825H63.95V41.95H0.05V36.825ZM0.05 47.2625H63.95V52.3875H0.05V47.2625ZM0 58.875H63.9V64H0V58.875Z" fill="white"/>
</g>
<defs>
<clipPath id="clip0_3478_29036">
<rect width="64" height="64" fill="white"/>
</clipPath>
</defs>
</svg>
