<svg width="24" height="24" viewBox="0 0 24 24" fill="none" xmlns="http://www.w3.org/2000/svg">
<g clip-path="url(#clip0_23284_1031)">
<path d="M0 0H24V24H0V0Z" fill="#CC0000"/>
<path d="M0.0187988 1.99219H23.9813V3.91406H0.0187988V1.99219ZM0.0187988 5.92969H23.9813V7.85156H0.0187988V5.92969ZM0.0187988 9.87188H23.9813V11.7938H0.0187988V9.87188Z" fill="white"/>
<path d="M0 0H12V14.0016H0V0Z" fill="#000066"/>
<path d="M8.08599 4.06876L8.34849 5.85939L9.36098 4.35939L8.81724 6.08439L10.3782 5.17501L9.14067 6.4922L10.9454 6.35158L9.25786 6.99845L10.9454 7.6547L9.14067 7.50939L10.3782 8.82189L8.81255 7.92189L9.3563 9.6422L8.3438 8.14689L8.0813 9.93283L7.8188 8.15158L6.81099 9.6422L7.35005 7.92189L5.7938 8.83126L7.02661 7.51408L5.22661 7.6547L6.91411 7.00314L5.22661 6.35158L7.02661 6.49689L5.7938 5.1797L7.35005 6.08908L6.81567 4.35939L7.82348 5.85939L8.08599 4.06876ZM6.62349 4.14376C6.14746 3.93217 5.62611 3.84287 5.10681 3.88398C4.5875 3.92509 4.08669 4.09531 3.64989 4.37916C3.21309 4.66301 2.85413 5.05151 2.60563 5.50935C2.35714 5.96719 2.22698 6.47986 2.22698 7.00079C2.22698 7.52173 2.35714 8.0344 2.60563 8.49224C2.85413 8.95008 3.21309 9.33858 3.64989 9.62243C4.08669 9.90628 4.5875 10.0765 5.10681 10.1176C5.62611 10.1587 6.14746 10.0694 6.62349 9.85783C6.0981 10.2346 5.479 10.4591 4.83427 10.5068C4.18953 10.5545 3.54413 10.4235 2.96901 10.1282C2.39389 9.83295 1.91134 9.38478 1.57441 8.83303C1.23747 8.28127 1.0592 7.64729 1.0592 7.00079C1.0592 6.3543 1.23747 5.72032 1.57441 5.16856C1.91134 4.61681 2.39389 4.16864 2.96901 3.87334C3.54413 3.57804 4.18953 3.44705 4.83427 3.49476C5.479 3.54246 6.0981 3.76703 6.62349 4.14376Z" fill="#FFCC00"/>
<path d="M0.01875 13.8094H23.9813V15.7313H0.01875V13.8094ZM0.01875 17.7234H23.9813V19.6453H0.01875V17.7234ZM0 22.0781H23.9625V24H0V22.0781Z" fill="white"/>
</g>
<defs>
<clipPath id="clip0_23284_1031">
<rect width="24" height="24" fill="white"/>
</clipPath>
</defs>
</svg>
