<svg width="64" height="64" viewBox="0 0 64 64" fill="none" xmlns="http://www.w3.org/2000/svg">
<g clip-path="url(#clip0_6271_26473)">
<path fill-rule="evenodd" clip-rule="evenodd" d="M0 0H64V64H0V0Z" fill="#00247D"/>
<path d="M49.5488 19.3662V21.0848L52.9859 19.3662H49.5488Z" fill="white"/>
<path d="M50.2811 21.2762L49.271 19.8859L53.0618 19.2559L50.2811 21.2762Z" fill="white"/>
<path d="M49.5493 19.3662V21.0848L46.1122 19.3662H49.5493Z" fill="white"/>
<path d="M48.817 21.2762L49.8271 19.8859L46.0363 19.2559L48.817 21.2762Z" fill="white"/>
<path d="M50.5298 20.0789L48.8953 20.6099L51.5919 23.3478L50.5298 20.0789Z" fill="white"/>
<path d="M48.9396 21.3654L49.9497 19.9751L51.7203 23.3857L48.9396 21.3654Z" fill="white"/>
<path d="M48.5684 20.0789L50.2028 20.6099L49.6305 16.81L48.5684 20.0789Z" fill="white"/>
<path d="M50.611 19.9726L48.9766 20.5037L49.5489 16.7037L50.611 19.9726Z" fill="white"/>
<path d="M48.5684 20.0789L50.2028 20.6099L47.5062 23.3478L48.5684 20.0789Z" fill="white"/>
<path d="M50.1586 21.3654L49.1484 19.9751L47.3779 23.3857L50.1586 21.3654Z" fill="white"/>
<path d="M49.5488 19.7161V20.8517L51.8201 19.7161H49.5488Z" fill="#CC142B"/>
<path d="M50.0327 20.9782L49.3652 20.0594L51.8702 19.6432L50.0327 20.9782Z" fill="#CC142B"/>
<path d="M49.5488 19.7161V20.8517L47.2776 19.7161H49.5488Z" fill="#CC142B"/>
<path d="M49.0649 20.9782L49.7324 20.0594L47.2275 19.6432L49.0649 20.9782Z" fill="#CC142B"/>
<path d="M50.1968 20.1869L49.1167 20.5378L50.8986 22.347L50.1968 20.1869Z" fill="#CC142B"/>
<path d="M49.146 21.037L49.8135 20.1183L50.9834 22.372L49.146 21.037Z" fill="#CC142B"/>
<path d="M48.9009 20.1869L49.9809 20.5378L49.6027 18.0268L48.9009 20.1869Z" fill="#CC142B"/>
<path d="M50.2504 20.1166L49.1704 20.4675L49.5486 17.9565L50.2504 20.1166Z" fill="#CC142B"/>
<path d="M48.9009 20.1869L49.9809 20.5378L48.199 22.347L48.9009 20.1869Z" fill="#CC142B"/>
<path d="M49.9517 21.037L49.2842 20.1183L48.1142 22.372L49.9517 21.037Z" fill="#CC142B"/>
<path d="M58.5537 27.302L58.5537 28.8313L61.6123 27.302L58.5537 27.302Z" fill="white"/>
<path d="M59.2055 29.0017L58.3066 27.7645L61.68 27.204L59.2055 29.0017Z" fill="white"/>
<path d="M58.5542 27.302L58.5542 28.8313L55.4956 27.302L58.5542 27.302Z" fill="white"/>
<path d="M57.9024 29.0017L58.8013 27.7645L55.4279 27.204L57.9024 29.0017Z" fill="white"/>
<path d="M59.4263 27.936L57.9718 28.4086L60.3714 30.8449L59.4263 27.936Z" fill="white"/>
<path d="M58.0113 29.081L58.9102 27.8438L60.4857 30.8788L58.0113 29.081Z" fill="white"/>
<path d="M57.6812 27.936L59.1356 28.4086L58.6263 25.0271L57.6812 27.936Z" fill="white"/>
<path d="M59.4994 27.8415L58.0449 28.3141L58.5542 24.9326L59.4994 27.8415Z" fill="white"/>
<path d="M57.6812 27.936L59.1356 28.4086L56.736 30.8449L57.6812 27.936Z" fill="white"/>
<path d="M59.0962 29.081L58.1973 27.8438L56.6217 30.8788L59.0962 29.081Z" fill="white"/>
<path d="M58.5532 27.6517L58.5532 28.5981L60.4459 27.6517L58.5532 27.6517Z" fill="#CC142B"/>
<path d="M58.9566 28.7036L58.4004 27.938L60.4879 27.5911L58.9566 28.7036Z" fill="#CC142B"/>
<path d="M58.5537 27.6517L58.5537 28.5981L56.661 27.6517L58.5537 27.6517Z" fill="#CC142B"/>
<path d="M58.1503 28.7036L58.7065 27.938L56.6191 27.5911L58.1503 28.7036Z" fill="#CC142B"/>
<path d="M59.0933 28.0441L58.1932 28.3365L59.6781 29.8441L59.0933 28.0441Z" fill="#CC142B"/>
<path d="M58.2177 28.7525L58.7739 27.9869L59.7489 29.865L58.2177 28.7525Z" fill="#CC142B"/>
<path d="M58.0132 28.0442L58.9132 28.3366L58.5981 26.2441L58.0132 28.0442Z" fill="#CC142B"/>
<path d="M59.1383 27.9856L58.2383 28.2781L58.5534 26.1856L59.1383 27.9856Z" fill="#CC142B"/>
<path d="M58.0137 28.0441L58.9137 28.3365L57.4288 29.8441L58.0137 28.0441Z" fill="#CC142B"/>
<path d="M58.8893 28.7525L58.333 27.9869L57.358 29.865L58.8893 28.7525Z" fill="#CC142B"/>
<path d="M39.0576 29.9318L39.0576 31.6503L42.4947 29.9318L39.0576 29.9318Z" fill="white"/>
<path d="M39.7899 31.8418L38.7798 30.4514L42.5706 29.8215L39.7899 31.8418Z" fill="white"/>
<path d="M39.0581 29.9316L39.0581 31.6502L35.621 29.9316L39.0581 29.9316Z" fill="white"/>
<path d="M38.3258 31.8416L39.3359 30.4513L35.5451 29.8213L38.3258 31.8416Z" fill="white"/>
<path d="M40.0386 30.6443L38.4041 31.1754L41.1007 33.9132L40.0386 30.6443Z" fill="white"/>
<path d="M38.4484 31.9309L39.4585 30.5405L41.229 33.9512L38.4484 31.9309Z" fill="white"/>
<path d="M38.0771 30.6443L39.7116 31.1754L39.1393 27.3754L38.0771 30.6443Z" fill="white"/>
<path d="M40.1198 30.538L38.4854 31.0691L39.0577 27.2691L40.1198 30.538Z" fill="white"/>
<path d="M38.0771 30.6443L39.7116 31.1754L37.015 33.9132L38.0771 30.6443Z" fill="white"/>
<path d="M39.6674 31.9309L38.6572 30.5405L36.8867 33.9512L39.6674 31.9309Z" fill="white"/>
<path d="M39.0576 30.2815L39.0576 31.4171L41.3288 30.2815L39.0576 30.2815Z" fill="#CC142B"/>
<path d="M39.5415 31.5436L38.874 30.6249L41.379 30.2086L39.5415 31.5436Z" fill="#CC142B"/>
<path d="M39.0576 30.2815L39.0576 31.4171L36.7864 30.2815L39.0576 30.2815Z" fill="#CC142B"/>
<path d="M38.5737 31.5436L39.2412 30.6249L36.7363 30.2086L38.5737 31.5436Z" fill="#CC142B"/>
<path d="M39.7056 30.7523L38.6255 31.1032L40.4074 32.9124L39.7056 30.7523Z" fill="#CC142B"/>
<path d="M38.6548 31.6024L39.3223 30.6837L40.4922 32.9374L38.6548 31.6024Z" fill="#CC142B"/>
<path d="M38.4097 30.7523L39.4897 31.1032L39.1115 28.5923L38.4097 30.7523Z" fill="#CC142B"/>
<path d="M39.7592 30.682L38.6792 31.033L39.0574 28.522L39.7592 30.682Z" fill="#CC142B"/>
<path d="M38.4097 30.7523L39.4897 31.1032L37.7078 32.9124L38.4097 30.7523Z" fill="#CC142B"/>
<path d="M39.4605 31.6024L38.793 30.6837L37.623 32.9374L39.4605 31.6024Z" fill="#CC142B"/>
<path d="M49.5493 46.5073V48.4152L53.365 46.5073H49.5493Z" fill="white"/>
<path d="M50.3621 48.6277L49.2407 47.0842L53.449 46.3849L50.3621 48.6277Z" fill="white"/>
<path d="M49.5493 46.5073V48.4152L45.7337 46.5073H49.5493Z" fill="white"/>
<path d="M48.7365 48.6277L49.8579 47.0842L45.6496 46.3849L48.7365 48.6277Z" fill="white"/>
<path d="M50.6377 47.2985L48.8232 47.888L51.8168 50.9274L50.6377 47.2985Z" fill="white"/>
<path d="M48.8727 48.7268L49.9941 47.1833L51.9597 50.9696L48.8727 48.7268Z" fill="white"/>
<path d="M48.4604 47.2983L50.2749 47.8879L49.6396 43.6694L48.4604 47.2983Z" fill="white"/>
<path d="M50.728 47.1805L48.9136 47.77L49.5489 43.5516L50.728 47.1805Z" fill="white"/>
<path d="M48.4609 47.2985L50.2754 47.888L47.2818 50.9274L48.4609 47.2985Z" fill="white"/>
<path d="M50.2259 48.7268L49.1045 47.1833L47.139 50.9696L50.2259 48.7268Z" fill="white"/>
<path d="M49.5493 46.8572V48.1821L52.1991 46.8572H49.5493Z" fill="#CC142B"/>
<path d="M50.1137 48.3297L49.335 47.2578L52.2574 46.7722L50.1137 48.3297Z" fill="#CC142B"/>
<path d="M49.5488 46.8572V48.1821L46.8991 46.8572H49.5488Z" fill="#CC142B"/>
<path d="M48.9844 48.3297L49.7632 47.2578L46.8407 46.7722L48.9844 48.3297Z" fill="#CC142B"/>
<path d="M50.3052 47.4065L49.0451 47.8159L51.124 49.9266L50.3052 47.4065Z" fill="#CC142B"/>
<path d="M49.0792 48.3984L49.8579 47.3265L51.2229 49.9559L49.0792 48.3984Z" fill="#CC142B"/>
<path d="M48.793 47.4065L50.053 47.8159L49.6118 44.8864L48.793 47.4065Z" fill="#CC142B"/>
<path d="M50.3679 47.3246L49.1079 47.734L49.5491 44.8045L50.3679 47.3246Z" fill="#CC142B"/>
<path d="M48.793 47.4065L50.053 47.8159L47.9741 49.9266L48.793 47.4065Z" fill="#CC142B"/>
<path d="M50.019 48.3984L49.2402 47.3265L47.8753 49.9559L50.019 48.3984Z" fill="#CC142B"/>
<path d="M0 0H32V32H0V0Z" fill="#012169"/>
<path d="M32 0V4L20.125 16L32 27.6875V32H27.8125L15.875 20.25L4.25 32H0V27.75L11.625 16.0625L0 4.625V0H3.875L15.875 11.75L27.5 0H32Z" fill="white"/>
<path d="M11.5 20.25L12.1875 22.375L2.625 32H0V31.8125L11.5 20.25ZM19.25 19.5L22.625 20L32 29.1875V32L19.25 19.5ZM32 0L20 12.25L19.75 9.5L29.125 0H32ZM0 0.0625L12.0625 11.875L8.375 11.375L0 3.0625V0.0625Z" fill="#C8102E"/>
<path d="M11 0V32H21V0H11ZM0 11V21H32V11H0Z" fill="white"/>
<path d="M0 13V19H32V13H0ZM13 0V32H19V0H13Z" fill="#C8102E"/>
</g>
<defs>
<clipPath id="clip0_6271_26473">
<rect width="64" height="64" fill="white"/>
</clipPath>
</defs>
</svg>
