<svg width="64" height="64" viewBox="0 0 64 64" fill="none" xmlns="http://www.w3.org/2000/svg">
<g clip-path="url(#clip0_6271_25222)">
<path d="M0 0H64V32H0V0Z" fill="#0038A8"/>
<path d="M0 32H64V64H0V32Z" fill="#CE1126"/>
<path d="M55.425 32L0 64V0" fill="white"/>
<path d="M3.15 5.5498L5.075 7.2123L7.3125 5.9873L6.3125 8.3248L8.1875 10.0748L5.625 9.8623L4.55 12.1623L3.9625 9.6873L1.4375 9.3623L3.625 8.0498L3.15 5.5498ZM46.5125 28.6248L46.5625 31.1623L48.975 31.9998L46.5625 32.8373L46.5125 35.3748L44.975 33.3498L42.5375 34.0998L44 31.9998L42.5375 29.9123L44.975 30.6498L46.5125 28.6248ZM4.5625 51.8373L5.6375 54.1373L8.175 53.9248L6.325 55.6748L7.3125 58.0123L5.075 56.7873L3.15 58.4498L3.6375 55.9498L1.45 54.6373L3.975 54.3123L4.5625 51.8373ZM19.8625 18.4998L19.0375 19.3248L19.4375 25.6123L19.025 25.6498L18.275 19.9123L17.5875 20.5873L18.6125 25.7123C17.79 25.8786 17.0083 26.2057 16.3125 26.6748L13.4 22.3248H12.4375L15.9625 26.9248L15.65 27.1873L11.4875 22.4373H10.3125V23.6248L15.0625 27.7873L14.7875 28.0998L10.1875 24.5748V25.5373L14.5375 28.4498C14.0725 29.1465 13.7497 29.9281 13.5875 30.7498L8.4625 29.7248L7.775 30.4123L13.525 31.1623L13.475 31.5873L7.1875 31.1748L6.35 31.9998L7.1875 32.8248L13.475 32.4248L13.5125 32.8373L7.775 33.5873L8.45 34.2748L13.575 33.2498C13.7413 34.0723 14.0684 34.854 14.5375 35.5498L10.1875 38.4623V39.4248L14.7875 35.8998L15.05 36.2123L10.3 40.3748V41.5498H11.5L15.6625 36.7998L15.975 37.0748L12.45 41.6748H13.4125L16.325 37.3248C17.0215 37.7901 17.8032 38.1129 18.625 38.2748L17.6 43.3998L18.2875 44.0873L19.0375 38.3373L19.45 38.3873L19.05 44.6748L19.875 45.5123L20.7 44.6748L20.3 38.3873L20.7125 38.3498L21.4625 44.0873L22.15 43.4123L21.125 38.2873C21.9475 38.121 22.7292 37.7939 23.425 37.3248L26.3375 41.6748H27.3L23.75 37.0748L24.0625 36.8123L28.225 41.5623H29.4V40.3748L24.65 36.2123L24.925 35.8998L29.525 39.4248V38.4623L25.175 35.5498C25.64 34.8531 25.9628 34.0715 26.125 33.2498L31.25 34.2748L31.9375 33.5873L26.1875 32.8373L26.2375 32.4248L32.525 32.8248L33.3625 31.9998L32.525 31.1748L26.2375 31.5873C26.2375 31.4373 26.2125 31.2998 26.2 31.1623L31.9375 30.4123L31.2625 29.7248L26.1375 30.7498C25.9712 29.9273 25.6441 29.1456 25.175 28.4498L29.525 25.5373V24.5748L24.925 28.0998L24.6625 27.7873L29.4125 23.6248V22.4498H28.225L24.0625 27.1998L23.75 26.9248L27.275 22.3248H26.3125L23.4 26.6748C22.7033 26.2098 21.9217 25.887 21.1 25.7248L22.125 20.5998L21.4375 19.9123L20.6875 25.6623L20.275 25.6123L20.675 19.3248L19.8625 18.4998Z" fill="#FCD116"/>
</g>
<defs>
<clipPath id="clip0_6271_25222">
<rect width="64" height="64" fill="white"/>
</clipPath>
</defs>
</svg>
