<svg width="64" height="64" viewBox="0 0 64 64" fill="none" xmlns="http://www.w3.org/2000/svg">
<g clip-path="url(#clip0_6271_25464)">
<path d="M25.5999 0H63.9999V64H25.5874L25.5999 0Z" fill="#FF0000"/>
<path d="M-0.000195312 0H25.5998V64H-0.0126953L-0.000195312 0Z" fill="#006600"/>
<path fill-rule="evenodd" clip-rule="evenodd" d="M36.7251 40.825C32.4251 40.7 12.7251 28.4 12.6001 26.4375L13.6751 24.625C15.6251 27.4625 35.7751 39.425 37.7501 39L36.7251 40.825Z" fill="#FFFF00" stroke="black" stroke-width="0.0875" stroke-linecap="round" stroke-linejoin="round"/>
<path fill-rule="evenodd" clip-rule="evenodd" d="M13.4501 24.3751C13.0626 25.4126 18.5876 28.8251 25.2376 32.8751C31.8876 36.9126 37.6126 39.4126 38.0501 39.0626L38.2376 38.7001C38.1626 38.8251 37.9626 38.8626 37.6626 38.7751C35.8626 38.2501 31.1751 36.1001 25.3751 32.5876C19.5751 29.0751 14.5251 25.8251 13.7501 24.4501C13.6862 24.3223 13.6561 24.1803 13.6626 24.0376H13.6376L13.4751 24.3251L13.4501 24.3751ZM36.8251 40.8751C36.7501 41.0126 36.6126 41.0126 36.3626 41.0001C34.7501 40.8126 29.8626 38.4376 24.1126 34.9876C17.3876 30.9626 11.8376 27.3001 12.4501 26.3501L12.6126 26.0501L12.6376 26.0626C12.1001 27.6876 23.5876 34.2501 24.2626 34.6751C30.9001 38.8001 36.5126 41.2001 37.0126 40.5751L36.8251 40.8751Z" fill="#FFFF00" stroke="black" stroke-width="0.0875" stroke-linecap="round" stroke-linejoin="round"/>
<path fill-rule="evenodd" clip-rule="evenodd" d="M25.6254 27.6251C29.9129 27.5876 35.2254 27.0376 38.2754 25.8251L37.6254 24.7501C35.8129 25.7501 30.4879 26.4126 25.5879 26.5001C19.7879 26.4501 15.7004 25.9126 13.6504 24.5376L13.0254 25.6751C16.8004 27.2626 20.6504 27.6126 25.6254 27.6251Z" fill="#FFFF00" stroke="black" stroke-width="0.0875" stroke-linecap="round" stroke-linejoin="round"/>
<path fill-rule="evenodd" clip-rule="evenodd" d="M38.4628 25.8499C38.3503 26.0124 36.3628 26.6999 33.4253 27.1999C30.8352 27.5884 28.2194 27.7806 25.6003 27.7749C23.0924 27.7861 20.5867 27.6274 18.1003 27.2999C15.0378 26.8124 13.4378 26.1374 12.8503 25.8999L13.0003 25.6124C14.6626 26.2676 16.3948 26.729 18.1628 26.9874C20.6286 27.31 23.1135 27.4645 25.6003 27.4499C28.1985 27.4516 30.7932 27.2594 33.3628 26.8749C36.3628 26.3874 38.0128 25.7624 38.2378 25.4749L38.4628 25.8499ZM37.8753 24.7499C37.5503 24.9999 35.9253 25.5874 33.0753 26.0374C30.612 26.391 28.1264 26.5665 25.6378 26.5624C23.2381 26.5806 20.8403 26.4261 18.4628 26.0999C15.5503 25.7249 14.0128 25.0374 13.4628 24.8374L13.6253 24.5499C14.0503 24.7749 15.5503 25.3749 18.5003 25.7999C20.8669 26.1066 23.2515 26.2528 25.6378 26.2374C28.1056 26.2408 30.5704 26.0653 33.0128 25.7124C35.8878 25.3124 37.4378 24.5874 37.6753 24.3999L37.8753 24.7499ZM11.5003 32.7999C14.1503 34.2249 20.0128 34.9499 25.5753 34.9999C30.6378 34.9999 37.2378 34.2124 39.7003 32.8999L39.6253 31.4749C38.8628 32.6874 31.8003 33.8499 25.5253 33.7999C19.2503 33.7499 13.4253 32.7749 11.4878 31.5249V32.7999" fill="#FFFF00"/>
<path d="M11.5003 32.7999C14.1503 34.2249 20.0128 34.9499 25.5753 34.9999C30.6378 34.9999 37.2378 34.2124 39.7003 32.8999L39.6253 31.4749C38.8628 32.6874 31.8003 33.8499 25.5253 33.7999C19.2503 33.7499 13.4253 32.7749 11.4878 31.5249V32.7999M38.4628 25.8499C38.3503 26.0124 36.3628 26.6999 33.4253 27.1999C30.8352 27.5884 28.2194 27.7806 25.6003 27.7749C23.0924 27.7861 20.5867 27.6274 18.1003 27.2999C15.0378 26.8124 13.4378 26.1374 12.8503 25.8999L13.0003 25.6124C14.6626 26.2676 16.3948 26.729 18.1628 26.9874C20.6286 27.31 23.1135 27.4645 25.6003 27.4499C28.1985 27.4516 30.7932 27.2594 33.3628 26.8749C36.3628 26.3874 38.0128 25.7624 38.2378 25.4749L38.4628 25.8499ZM37.8753 24.7499C37.5503 24.9999 35.9253 25.5874 33.0753 26.0374C30.612 26.391 28.1264 26.5665 25.6378 26.5624C23.2381 26.5806 20.8403 26.4261 18.4628 26.0999C15.5503 25.7249 14.0128 25.0374 13.4628 24.8374L13.6253 24.5499C14.0503 24.7749 15.5503 25.3749 18.5003 25.7999C20.8669 26.1066 23.2515 26.2528 25.6378 26.2374C28.1056 26.2408 30.5704 26.0653 33.0128 25.7124C35.8878 25.3124 37.4378 24.5874 37.6753 24.3999L37.8753 24.7499Z" stroke="black" stroke-width="0.0875" stroke-linecap="round" stroke-linejoin="round"/>
<path fill-rule="evenodd" clip-rule="evenodd" d="M39.8377 32.6001V32.9376C39.4627 33.3876 37.1377 34.0626 34.2252 34.5251C31.3403 34.9441 28.4278 35.1447 25.5127 35.1251C22.0877 35.1251 19.3627 34.8751 17.2377 34.5501C15.1988 34.3184 13.206 33.7833 11.3252 32.9626V32.5626C12.6252 33.4251 16.1127 34.0501 17.2877 34.2376C19.3877 34.5626 22.1002 34.8001 25.5127 34.8001C29.1002 34.8001 31.9752 34.5501 34.1752 34.2126C36.2752 33.9126 39.2502 33.1251 39.8377 32.6001ZM39.8377 31.3876V31.7376C39.4627 32.1751 37.1377 32.8501 34.2252 33.3126C31.3403 33.7316 28.4278 33.9322 25.5127 33.9126C22.0877 33.9126 19.3627 33.6626 17.2502 33.3501C15.2065 33.1152 13.2093 32.5759 11.3252 31.7501V31.3501C12.6252 32.2126 16.1127 32.8501 17.2877 33.0251C19.4002 33.3501 22.1127 33.6001 25.5127 33.6001C29.1002 33.6001 31.9752 33.3501 34.1752 33.0001C36.2752 32.7001 39.2502 31.9126 39.8377 31.3876ZM25.5627 40.5751C19.4877 40.5376 14.2752 38.9251 13.1752 38.6501L13.9752 39.9001C15.9127 40.7251 21.0002 41.9501 25.6252 41.8126C30.2502 41.6751 34.2877 41.3126 37.1252 39.9376L37.9502 38.6251C36.0127 39.5376 29.4127 40.5751 25.5752 40.5751" fill="#FFFF00"/>
<path d="M25.5627 40.5751C19.4877 40.5376 14.2752 38.9251 13.1752 38.6501L13.9752 39.9001C15.9127 40.7251 21.0002 41.9501 25.6252 41.8126C30.2502 41.6751 34.2877 41.3126 37.1252 39.9376L37.9502 38.6251C36.0127 39.5376 29.4127 40.5751 25.5752 40.5751M39.8377 32.6001V32.9376C39.4627 33.3876 37.1377 34.0626 34.2252 34.5251C31.3403 34.9441 28.4278 35.1447 25.5127 35.1251C22.0877 35.1251 19.3627 34.8751 17.2377 34.5501C15.1988 34.3184 13.206 33.7833 11.3252 32.9626V32.5626C12.6252 33.4251 16.1127 34.0501 17.2877 34.2376C19.3877 34.5626 22.1002 34.8001 25.5127 34.8001C29.1002 34.8001 31.9752 34.5501 34.1752 34.2126C36.2752 33.9126 39.2502 33.1251 39.8377 32.6001ZM39.8377 31.3876V31.7376C39.4627 32.1751 37.1377 32.8501 34.2252 33.3126C31.3403 33.7316 28.4278 33.9322 25.5127 33.9126C22.0877 33.9126 19.3627 33.6626 17.2502 33.3501C15.2065 33.1152 13.2093 32.5759 11.3252 31.7501V31.3501C12.6252 32.2126 16.1127 32.8501 17.2877 33.0251C19.4002 33.3501 22.1127 33.6001 25.5127 33.6001C29.1002 33.6001 31.9752 33.3501 34.1752 33.0001C36.2752 32.7001 39.2502 31.9126 39.8377 31.3876Z" stroke="black" stroke-width="0.0875" stroke-linecap="round" stroke-linejoin="round"/>
<path fill-rule="evenodd" clip-rule="evenodd" d="M37.4378 39.6374C37.316 39.8229 37.191 40.0063 37.0628 40.1874C35.6444 40.6579 34.1951 41.0297 32.7253 41.2999C30.3667 41.7339 27.9734 41.9514 25.5753 41.9499C20.1878 41.8749 15.7753 40.8249 13.7003 39.9249L13.5253 39.6374L13.5628 39.5874L13.8378 39.6999C17.633 40.9575 21.6022 41.6113 25.6003 41.6374C28.1003 41.6499 30.6003 41.3499 32.6128 40.9999C35.7128 40.3749 36.9628 39.9124 37.3503 39.6999L37.4378 39.6374ZM38.1503 38.4624H38.1628C38.0723 38.6214 37.9806 38.7797 37.8878 38.9374C37.1753 39.1874 35.2253 39.7624 32.3878 40.1624C30.5128 40.4124 29.3503 40.6624 25.6378 40.7374C21.3841 40.6915 17.157 40.0606 13.0753 38.8624L12.9253 38.5499C17.0712 39.6877 21.34 40.3173 25.6378 40.4249C29.0378 40.3499 30.4878 40.0999 32.3378 39.8374C35.6503 39.3374 37.3128 38.7874 37.8128 38.6249C37.8089 38.6164 37.8048 38.6081 37.8003 38.5999L38.1503 38.4624Z" fill="#FFFF00" stroke="black" stroke-width="0.075" stroke-linecap="round" stroke-linejoin="round"/>
<path fill-rule="evenodd" clip-rule="evenodd" d="M38.2251 31.6751C38.2501 35.6751 36.2001 39.2751 34.5501 40.8626C32.1264 43.2199 28.8932 44.5614 25.5126 44.6126C21.4751 44.6876 17.6751 42.0501 16.6501 40.9001C14.6501 38.6376 13.0251 35.7751 12.9751 31.9001C13.2251 27.5251 14.9376 24.4876 17.4251 22.4001C19.8321 20.4202 22.8585 19.3495 25.9751 19.3751C29.1501 19.4626 32.8751 21.0251 35.4376 24.1251C37.1126 26.1501 37.8501 28.3501 38.2251 31.6876V31.6751ZM25.5501 17.9751C33.3001 17.9751 39.6751 24.2876 39.6751 32.0126C39.652 35.7436 38.1536 39.3139 35.5072 41.944C32.8607 44.574 29.2812 46.0502 25.5501 46.0501C17.8001 46.0501 11.4751 39.7501 11.4751 32.0126C11.4751 24.2751 17.8001 17.9751 25.5501 17.9751Z" fill="#FFFF00" stroke="black" stroke-width="0.0875" stroke-linecap="round" stroke-linejoin="round"/>
<path fill-rule="evenodd" clip-rule="evenodd" d="M25.5875 17.9251C33.3375 17.9251 39.6625 24.2626 39.6625 32.0126C39.6625 39.7626 33.3375 46.1001 25.5875 46.1001C21.8521 46.0902 18.2728 44.6011 15.6327 41.9586C12.9925 39.3161 11.5066 35.7355 11.5 32.0001C11.5099 28.2669 12.9973 24.6894 15.6371 22.0497C18.2768 19.4099 21.8543 17.9225 25.5875 17.9126V17.9251ZM11.8125 32.0126C11.8125 39.5876 18.0375 45.7876 25.5875 45.7876C33.1375 45.7876 39.35 39.5876 39.35 32.0126C39.35 24.4376 33.1375 18.2501 25.5875 18.2501C21.9404 18.2633 18.4462 19.7171 15.866 22.2948C13.2859 24.8726 11.829 28.3655 11.8125 32.0126Z" fill="#FFFF00" stroke="black" stroke-width="0.0875" stroke-linecap="round" stroke-linejoin="round"/>
<path fill-rule="evenodd" clip-rule="evenodd" d="M25.6 19.1001C32.6625 19.1001 38.4875 24.9126 38.4875 32.0001C38.4875 39.1001 32.6625 44.9001 25.6 44.9001C22.1806 44.8902 18.9039 43.5283 16.4848 41.1116C14.0657 38.6949 12.7007 35.4195 12.6875 32.0001C12.6875 24.9126 18.5125 19.1001 25.5875 19.1001H25.6ZM13 32.0001C13 38.9251 18.6875 44.5876 25.6 44.5876C32.5 44.5876 38.1875 38.9251 38.1875 32.0001C38.1875 25.0751 32.5 19.4126 25.5875 19.4126C18.675 19.4126 13 25.0751 13 32.0001Z" fill="#FFFF00" stroke="black" stroke-width="0.0875" stroke-linecap="round" stroke-linejoin="round"/>
<path fill-rule="evenodd" clip-rule="evenodd" d="M26.1627 17.875H24.9502V46.175H26.1627V17.875Z" fill="#FFFF00" stroke="black" stroke-width="0.0875" stroke-linecap="round" stroke-linejoin="round"/>
<path fill-rule="evenodd" clip-rule="evenodd" d="M26.0379 17.7124H26.3504V46.3374H26.0379V17.7124ZM24.8379 17.7124H25.1504V46.3374H24.8379V17.7124Z" fill="#FFFF00" stroke="black" stroke-width="0.0875" stroke-linecap="round" stroke-linejoin="round"/>
<path fill-rule="evenodd" clip-rule="evenodd" d="M39.6752 32.5624V31.4999L38.8252 30.7124L33.9877 29.4249L27.0127 28.7124L18.6377 29.1374L12.6502 30.5624L11.4502 31.4624V32.4999L14.5002 31.1249L21.7502 29.9999H28.7252L33.8502 30.5624L37.4002 31.4249L39.6752 32.5624Z" fill="#FFFF00" stroke="black" stroke-width="0.0875" stroke-linecap="round" stroke-linejoin="round"/>
<path fill-rule="evenodd" clip-rule="evenodd" d="M25.5877 29.8375C28.6438 29.825 31.6945 30.097 34.7002 30.65C37.3377 31.175 39.2002 31.8375 39.8252 32.575V32.95C39.0752 32.025 36.5752 31.35 34.6377 30.95C32.1002 30.4625 28.8877 30.15 25.5877 30.15C22.0877 30.15 18.8377 30.4875 16.3377 30.975C14.3377 31.375 11.6627 32.1625 11.3252 32.95V32.575C11.5127 32.025 13.5002 31.2125 16.3002 30.65C19.3644 30.0941 22.4735 29.8221 25.5877 29.8375ZM25.5877 28.625C28.6479 28.6132 31.7027 28.8852 34.7127 29.4375C37.3377 29.9625 39.2127 30.625 39.8377 31.375V31.7375C39.0752 30.8125 36.5627 30.1375 34.6377 29.75C32.1002 29.25 28.8877 28.9375 25.5877 28.9375C22.4939 28.9279 19.4057 29.2041 16.3627 29.7625C14.4252 30.1375 11.6377 30.9625 11.3252 31.7375V31.3625C11.5127 30.825 13.5502 29.9875 16.3002 29.45C19.3641 28.8899 22.4731 28.6137 25.5877 28.625ZM25.5252 22.4625C30.7627 22.4375 35.3377 23.2 37.4252 24.275L38.1877 25.5875C36.3752 24.6125 31.4377 23.5875 25.5252 23.75C20.7127 23.775 15.5752 24.275 12.9877 25.65L13.9002 24.125C16.0252 23.025 21.0252 22.475 25.5252 22.4625Z" fill="#FFFF00" stroke="black" stroke-width="0.0875" stroke-linecap="round" stroke-linejoin="round"/>
<path fill-rule="evenodd" clip-rule="evenodd" d="M25.5879 23.55C28.5879 23.55 31.4629 23.7125 33.7629 24.125C35.9004 24.525 37.9504 25.125 38.2379 25.45L38.4629 25.85C37.7504 25.3875 35.9879 24.8625 33.7129 24.4375C31.0266 24.0096 28.3075 23.8214 25.5879 23.875C22.2129 23.875 19.5879 24.0375 17.3379 24.4375C14.9629 24.875 13.3129 25.5125 12.9004 25.8125L13.1254 25.4C13.9129 24.9875 15.1754 24.5 17.2879 24.125C19.6129 23.7 22.2504 23.575 25.5879 23.55ZM25.5879 22.35C28.2279 22.3084 30.8667 22.4924 33.4754 22.9C35.2129 23.2375 36.9254 23.7625 37.5629 24.225L37.8879 24.75C37.3254 24.125 35.2129 23.5375 33.3379 23.2125C31.1629 22.8375 28.4504 22.6875 25.5879 22.6625C22.5879 22.6625 19.8129 22.85 17.6629 23.2375C15.6129 23.6375 14.2879 24.1 13.7254 24.4625L14.0129 24.0125C14.7879 23.6125 16.0379 23.2375 17.6129 22.925C19.7754 22.5375 22.5754 22.35 25.5879 22.35ZM32.5879 37.8625C30.2767 37.464 27.9326 37.2882 25.5879 37.3375C16.8504 37.4375 14.0379 39.125 13.6879 39.6375L13.0379 38.575C15.2504 36.9625 20.0004 36.0625 25.6254 36.15C28.5379 36.2 31.0504 36.4 33.1754 36.8L32.5754 37.8625" fill="#FFFF00"/>
<path d="M32.5879 37.8625C30.2767 37.464 27.9326 37.2882 25.5879 37.3375C16.8504 37.4375 14.0379 39.125 13.6879 39.6375L13.0379 38.575C15.2504 36.9625 20.0004 36.0625 25.6254 36.15C28.5379 36.2 31.0504 36.4 33.1754 36.8L32.5754 37.8625M25.5879 23.55C28.5879 23.55 31.4629 23.7125 33.7629 24.125C35.9004 24.525 37.9504 25.125 38.2379 25.45L38.4629 25.85C37.7504 25.3875 35.9879 24.8625 33.7129 24.4375C31.0266 24.0096 28.3075 23.8214 25.5879 23.875C22.2129 23.875 19.5879 24.0375 17.3379 24.4375C14.9629 24.875 13.3129 25.5125 12.9004 25.8125L13.1254 25.4C13.9129 24.9875 15.1754 24.5 17.2879 24.125C19.6129 23.7 22.2504 23.575 25.5879 23.55ZM25.5879 22.35C28.2279 22.3084 30.8667 22.4924 33.4754 22.9C35.2129 23.2375 36.9254 23.7625 37.5629 24.225L37.8879 24.75C37.3254 24.125 35.2129 23.5375 33.3379 23.2125C31.1629 22.8375 28.4504 22.6875 25.5879 22.6625C22.5879 22.6625 19.8129 22.85 17.6629 23.2375C15.6129 23.6375 14.2879 24.1 13.7254 24.4625L14.0129 24.0125C14.7879 23.6125 16.0379 23.2375 17.6129 22.925C19.7754 22.5375 22.5754 22.35 25.5879 22.35Z" stroke="black" stroke-width="0.0875" stroke-linecap="round" stroke-linejoin="round"/>
<path fill-rule="evenodd" clip-rule="evenodd" d="M25.5376 37.1876C27.9626 37.2251 30.3501 37.3126 32.6626 37.7501L32.4876 38.0501C30.197 37.6546 27.8743 37.4746 25.5501 37.5126C22.3251 37.4876 19.0501 37.7876 16.2251 38.6001C15.3251 38.8501 13.8501 39.4251 13.6876 39.9001L13.5251 39.6251C13.5751 39.3501 14.4751 38.7626 16.1501 38.3001C19.4001 37.3626 22.4376 37.2126 25.5251 37.1751L25.5376 37.1876ZM25.6501 35.9626C28.2104 35.9602 30.766 36.1819 33.2876 36.6251L33.1126 36.9376C30.6551 36.4881 28.1608 36.2704 25.6626 36.2876C22.4251 36.2876 19.0001 36.5251 15.8751 37.4251C14.8751 37.7251 13.1251 38.3501 13.0751 38.8501L12.9126 38.5626C12.9501 38.1126 14.4501 37.5126 15.8126 37.1126C19.0222 36.2731 22.3334 35.886 25.6501 35.9626Z" fill="#FFFF00" stroke="black" stroke-width="0.075" stroke-linecap="round" stroke-linejoin="round"/>
<path fill-rule="evenodd" clip-rule="evenodd" d="M38.0502 38.7376L37.0002 40.3626L33.9877 37.6876L26.1627 32.4376L17.3502 27.5876L12.7627 26.0251L13.7377 24.2126L14.0752 24.0376L16.9252 24.7501L26.3002 29.5876L31.7127 33.0001L36.2502 36.2501L38.1002 38.3876L38.0502 38.7376Z" fill="#FFFF00" stroke="black" stroke-width="0.0875" stroke-linecap="round" stroke-linejoin="round"/>
<path fill-rule="evenodd" clip-rule="evenodd" d="M12.6003 26.0624C13.4128 25.5249 19.3128 28.1499 25.4753 31.8749C31.6378 35.6124 37.5253 39.8249 37.0003 40.6249L36.8253 40.8874L36.7378 40.9499C36.7628 40.9499 36.8503 40.8249 36.7378 40.5374C36.4628 39.6749 32.3003 36.3499 25.3628 32.1624C18.6128 28.1374 12.9878 25.7124 12.4253 26.4124L12.6003 26.0624ZM38.2628 38.7124C38.7628 37.7124 33.3003 33.5874 26.5128 29.5749C19.5753 25.6374 14.5628 23.3249 13.6503 24.0124L13.4503 24.3874C13.4503 24.3999 13.4503 24.3624 13.5003 24.3249C13.6628 24.1874 13.9378 24.1999 14.0628 24.1999C15.6378 24.2124 20.1378 26.2749 26.4378 29.8999C29.2003 31.4999 38.1128 37.2249 38.0753 38.8249C38.0753 38.9624 38.0878 38.9874 38.0378 39.0624L38.2628 38.7124Z" fill="#FFFF00" stroke="black" stroke-width="0.0875" stroke-linecap="round" stroke-linejoin="round"/>
<path d="M17.1479 33.559C17.1501 34.663 17.3711 35.7556 17.7983 36.7737C18.2256 37.7917 18.8505 38.7148 19.6368 39.4897C20.4137 40.2784 21.3389 40.9057 22.3592 41.3353C23.3795 41.7649 24.4747 41.9884 25.5817 41.9928C27.8222 41.9926 29.9709 41.1025 31.5551 39.5181C32.3387 38.739 32.9607 37.8127 33.3854 36.7925C33.8101 35.7723 34.029 34.6783 34.0298 33.5732V22.3092L17.1479 22.2808V33.559Z" fill="white" stroke="black" stroke-width="0.0995558"/>
<path d="M17.4609 33.5731C17.4639 34.6321 17.6766 35.6801 18.0867 36.6565C18.4968 37.6329 19.0962 38.5184 19.8503 39.262C21.3645 40.7841 23.4206 41.6434 25.5676 41.6513C27.7108 41.6525 29.767 40.8034 31.285 39.2904C32.0365 38.5457 32.6332 37.6596 33.0409 36.6833C33.4485 35.7069 33.6589 34.6596 33.6601 33.6015V22.6504H17.4894V33.5731M30.4316 25.9357V32.8904L30.4174 33.6157C30.4222 34.2511 30.2987 34.8809 30.0543 35.4674C29.8099 36.0539 29.4497 36.5851 28.9952 37.0291C28.0908 37.9367 26.8631 38.4482 25.5818 38.4513C24.2449 38.4513 23.0645 37.8824 22.1827 37.0006C21.2752 36.0962 20.7636 34.8686 20.7605 33.5873V25.9073L30.4316 25.9357Z" fill="#FF0000"/>
<path d="M17.4609 33.5731C17.4639 34.6321 17.6766 35.6801 18.0867 36.6565C18.4968 37.6329 19.0962 38.5184 19.8503 39.262C21.3645 40.7841 23.4206 41.6434 25.5676 41.6513C27.7108 41.6525 29.767 40.8034 31.285 39.2904C32.0365 38.5457 32.6332 37.6596 33.0409 36.6833C33.4485 35.7069 33.6589 34.6596 33.6601 33.6015V22.6504H17.4894V33.5731M30.4316 25.9357V32.8904L30.4174 33.6157C30.4222 34.2511 30.2987 34.8809 30.0543 35.4674C29.8099 36.0539 29.4497 36.5851 28.9952 37.0291C28.0908 37.9367 26.8631 38.4482 25.5818 38.4513C24.2449 38.4513 23.0645 37.8824 22.1827 37.0006C21.2752 36.0962 20.7636 34.8686 20.7605 33.5873V25.9073L30.4316 25.9357Z" stroke="black" stroke-width="0.0711113"/>
<path d="M18.5132 25.5091C18.5274 24.7269 19.0821 24.542 19.0821 24.542C19.0963 24.542 19.6936 24.7411 19.6936 25.5233H18.5132" fill="#FFFF00"/>
<path d="M18.0298 24.5562L17.9302 25.4522H18.5276C18.5276 24.7127 19.0965 24.5989 19.0965 24.5989C19.1107 24.5989 19.6654 24.7553 19.6796 25.4522H20.2769L20.1631 24.542H18.0298V24.5562ZM17.8876 25.4664H20.3054C20.348 25.4664 20.3907 25.5091 20.3907 25.566C20.3907 25.6371 20.348 25.6798 20.3054 25.6798H17.8876C17.8449 25.6798 17.8022 25.6371 17.8022 25.566C17.8022 25.5091 17.8449 25.4664 17.9018 25.4664H17.8876Z" fill="#FFFF00" stroke="black" stroke-width="0.0711113"/>
<path d="M18.7696 25.4522C18.7696 24.9829 19.0967 24.8549 19.0967 24.8549C19.0967 24.8549 19.4238 24.9971 19.4238 25.4522H18.7696ZM17.9447 24.1722H20.2629C20.3056 24.1722 20.3483 24.2291 20.3483 24.286C20.3483 24.3287 20.3056 24.3713 20.2629 24.3713H17.9447C17.902 24.3713 17.8594 24.3287 17.8594 24.2718C17.8594 24.2291 17.902 24.1864 17.9447 24.1864V24.1722ZM18.0016 24.3855H20.1918C20.2345 24.3855 20.2772 24.4282 20.2772 24.4851C20.2772 24.542 20.2345 24.5847 20.1918 24.5847H17.9874C17.9305 24.5847 17.902 24.542 17.902 24.4851C17.902 24.4282 17.9305 24.3855 17.9874 24.3855H18.0016ZM18.7127 22.878H18.8834V22.9918H19.0114V22.878H19.1963V23.006H19.3243V22.8638H19.4949V23.1482C19.4949 23.2051 19.4665 23.2335 19.4238 23.2335H18.798C18.7554 23.2335 18.7127 23.2051 18.7127 23.1624V22.878ZM19.3669 23.262L19.4096 24.1722H18.798L18.8407 23.2478H19.3669" fill="#FFFF00"/>
<path d="M19.3669 23.262L19.4096 24.1722H18.798L18.8407 23.2478H19.3669M18.7696 25.4522C18.7696 24.9829 19.0967 24.8549 19.0967 24.8549C19.0967 24.8549 19.4238 24.9971 19.4238 25.4522H18.7696ZM17.9447 24.1722H20.2629C20.3056 24.1722 20.3483 24.2291 20.3483 24.286C20.3483 24.3287 20.3056 24.3713 20.2629 24.3713H17.9447C17.902 24.3713 17.8594 24.3287 17.8594 24.2718C17.8594 24.2291 17.902 24.1864 17.9447 24.1864V24.1722ZM18.0016 24.3855H20.1918C20.2345 24.3855 20.2772 24.4282 20.2772 24.4851C20.2772 24.542 20.2345 24.5847 20.1918 24.5847H17.9874C17.9305 24.5847 17.902 24.542 17.902 24.4851C17.902 24.4282 17.9305 24.3855 17.9874 24.3855H18.0016ZM18.7127 22.878H18.8834V22.9918H19.0114V22.878H19.1963V23.006H19.3243V22.8638H19.4949V23.1482C19.4949 23.2051 19.4665 23.2335 19.4238 23.2335H18.798C18.7554 23.2335 18.7127 23.2051 18.7127 23.1624V22.878Z" stroke="black" stroke-width="0.0711113"/>
<path d="M18.627 23.6885V24.172H18.0581V23.6885H18.627Z" fill="#FFFF00" stroke="black" stroke-width="0.0711113"/>
<path d="M18.627 23.6885V24.172H18.0581V23.6885H18.627Z" fill="#FFFF00" stroke="black" stroke-width="0.0711113"/>
<path d="M17.9585 23.3188H18.1292V23.4611H18.2572V23.3188H18.4278V23.4611H18.5558V23.3188H18.7265V23.6033C18.7265 23.6602 18.6981 23.6886 18.6554 23.6886H18.0438C18.0212 23.6886 17.9995 23.6796 17.9835 23.6636C17.9675 23.6476 17.9585 23.6259 17.9585 23.6033V23.3188Z" fill="#FFFF00" stroke="black" stroke-width="0.0711113"/>
<path d="M17.9585 23.3188H18.1292V23.4611H18.2572V23.3188H18.4278V23.4611H18.5558V23.3188H18.7265V23.6033C18.7265 23.6602 18.6981 23.6886 18.6554 23.6886H18.0438C18.0212 23.6886 17.9995 23.6796 17.9835 23.6636C17.9675 23.6476 17.9585 23.6259 17.9585 23.6033V23.3188Z" fill="#FFFF00" stroke="black" stroke-width="0.0711113"/>
<path d="M19.0396 23.5464C19.0396 23.4611 19.1676 23.4611 19.1676 23.5464V23.774H19.0396V23.5464Z" fill="black"/>
<path d="M18.2856 23.8594C18.2856 23.7741 18.3994 23.7741 18.3994 23.8594V24.0301H18.2856V23.8594Z" fill="black"/>
<path d="M18.2856 23.8594C18.2856 23.7741 18.3994 23.7741 18.3994 23.8594V24.0301H18.2856V23.8594Z" fill="black"/>
<path d="M18.5132 25.5091C18.5274 24.7269 19.0821 24.542 19.0821 24.542C19.0963 24.542 19.6936 24.7411 19.6936 25.5233H18.5132" fill="#FFFF00"/>
<path d="M18.0298 24.5562L17.9302 25.4522H18.5276C18.5276 24.7127 19.0965 24.5989 19.0965 24.5989C19.1107 24.5989 19.6654 24.7553 19.6796 25.4522H20.2769L20.1631 24.542H18.0298V24.5562ZM17.8876 25.4664H20.3054C20.348 25.4664 20.3907 25.5091 20.3907 25.566C20.3907 25.6371 20.348 25.6798 20.3054 25.6798H17.8876C17.8449 25.6798 17.8022 25.6371 17.8022 25.566C17.8022 25.5091 17.8449 25.4664 17.9018 25.4664H17.8876Z" fill="#FFFF00" stroke="black" stroke-width="0.0711113"/>
<path d="M18.7696 25.4522C18.7696 24.9829 19.0967 24.8549 19.0967 24.8549C19.0967 24.8549 19.4238 24.9971 19.4238 25.4522H18.7696ZM17.9447 24.1722H20.2629C20.3056 24.1722 20.3483 24.2291 20.3483 24.286C20.3483 24.3287 20.3056 24.3713 20.2629 24.3713H17.9447C17.902 24.3713 17.8594 24.3287 17.8594 24.2718C17.8594 24.2291 17.902 24.1864 17.9447 24.1864V24.1722ZM18.0016 24.3855H20.1918C20.2345 24.3855 20.2772 24.4282 20.2772 24.4851C20.2772 24.542 20.2345 24.5847 20.1918 24.5847H17.9874C17.9305 24.5847 17.902 24.542 17.902 24.4851C17.902 24.4282 17.9305 24.3855 17.9874 24.3855H18.0016ZM18.7127 22.878H18.8834V22.9918H19.0114V22.878H19.1963V23.006H19.3243V22.8638H19.4949V23.1482C19.4949 23.2051 19.4665 23.2335 19.4238 23.2335H18.798C18.7554 23.2335 18.7127 23.2051 18.7127 23.1624V22.878ZM19.3669 23.262L19.4096 24.1722H18.798L18.8407 23.2478H19.3669" fill="#FFFF00"/>
<path d="M19.3669 23.262L19.4096 24.1722H18.798L18.8407 23.2478H19.3669M18.7696 25.4522C18.7696 24.9829 19.0967 24.8549 19.0967 24.8549C19.0967 24.8549 19.4238 24.9971 19.4238 25.4522H18.7696ZM17.9447 24.1722H20.2629C20.3056 24.1722 20.3483 24.2291 20.3483 24.286C20.3483 24.3287 20.3056 24.3713 20.2629 24.3713H17.9447C17.902 24.3713 17.8594 24.3287 17.8594 24.2718C17.8594 24.2291 17.902 24.1864 17.9447 24.1864V24.1722ZM18.0016 24.3855H20.1918C20.2345 24.3855 20.2772 24.4282 20.2772 24.4851C20.2772 24.542 20.2345 24.5847 20.1918 24.5847H17.9874C17.9305 24.5847 17.902 24.542 17.902 24.4851C17.902 24.4282 17.9305 24.3855 17.9874 24.3855H18.0016ZM18.7127 22.878H18.8834V22.9918H19.0114V22.878H19.1963V23.006H19.3243V22.8638H19.4949V23.1482C19.4949 23.2051 19.4665 23.2335 19.4238 23.2335H18.798C18.7554 23.2335 18.7127 23.2051 18.7127 23.1624V22.878Z" stroke="black" stroke-width="0.0711113"/>
<path d="M18.627 23.6885V24.172H18.0581V23.6885H18.627Z" fill="#FFFF00" stroke="black" stroke-width="0.0711113"/>
<path d="M18.627 23.6885V24.172H18.0581V23.6885H18.627Z" fill="#FFFF00" stroke="black" stroke-width="0.0711113"/>
<path d="M17.9585 23.3188H18.1292V23.4611H18.2572V23.3188H18.4278V23.4611H18.5558V23.3188H18.7265V23.6033C18.7265 23.6602 18.6981 23.6886 18.6554 23.6886H18.0438C18.0212 23.6886 17.9995 23.6796 17.9835 23.6636C17.9675 23.6476 17.9585 23.6259 17.9585 23.6033V23.3188Z" fill="#FFFF00" stroke="black" stroke-width="0.0711113"/>
<path d="M17.9585 23.3188H18.1292V23.4611H18.2572V23.3188H18.4278V23.4611H18.5558V23.3188H18.7265V23.6033C18.7265 23.6602 18.6981 23.6886 18.6554 23.6886H18.0438C18.0212 23.6886 17.9995 23.6796 17.9835 23.6636C17.9675 23.6476 17.9585 23.6259 17.9585 23.6033V23.3188Z" fill="#FFFF00" stroke="black" stroke-width="0.0711113"/>
<path d="M19.0396 23.5464C19.0396 23.4611 19.1676 23.4611 19.1676 23.5464V23.774H19.0396V23.5464Z" fill="black"/>
<path d="M18.2856 23.8594C18.2856 23.7741 18.3994 23.7741 18.3994 23.8594V24.0301H18.2856V23.8594Z" fill="black"/>
<path d="M18.2856 23.8594C18.2856 23.7741 18.3994 23.7741 18.3994 23.8594V24.0301H18.2856V23.8594Z" fill="black"/>
<path d="M21.0798 38.9569C20.5348 38.3956 20.7944 37.8717 20.7944 37.8717C20.8044 37.8616 21.3666 37.5781 21.9217 38.1293L21.0899 38.9669" fill="#FFFF00"/>
<path d="M20.063 38.6288L20.6286 39.3308L21.0495 38.907C20.5248 38.3859 20.8449 37.902 20.8449 37.902C20.8549 37.8919 21.3568 37.6086 21.8613 38.0895L22.2822 37.6657L21.5561 37.1051L20.0529 38.6188L20.063 38.6288ZM20.6087 39.3711L22.3123 37.6555C22.3424 37.6253 22.4027 37.625 22.4431 37.6651C22.4935 37.7152 22.4938 37.7756 22.4637 37.8059L20.76 39.5214C20.73 39.5517 20.6696 39.5519 20.6192 39.5018C20.5788 39.4617 20.5786 39.4014 20.6187 39.361L20.6087 39.3711Z" fill="#FFFF00" stroke="black" stroke-width="0.0711113"/>
<path d="M21.2198 38.7352C20.8867 38.4045 21.0264 38.0822 21.0264 38.0822C21.0264 38.0822 21.3578 37.9503 21.6808 38.271L21.2198 38.7352ZM19.7303 38.4186L21.3638 36.7736C21.3938 36.7433 21.4643 36.7531 21.5046 36.7932C21.5349 36.8233 21.5351 36.8836 21.505 36.9139L19.8715 38.5589C19.8415 38.5891 19.7811 38.5893 19.7408 38.5493C19.7105 38.5192 19.7103 38.4589 19.7404 38.4286L19.7303 38.4186ZM19.9217 38.5285L21.465 36.9744C21.4951 36.9441 21.5554 36.9439 21.5958 36.984C21.6362 37.0241 21.6364 37.0844 21.6063 37.1147L20.053 38.6789C20.0129 38.7193 19.9626 38.7094 19.9222 38.6693C19.8818 38.6292 19.8716 38.579 19.9117 38.5386L19.9217 38.5285ZM19.3531 36.9616L19.4733 36.8405L19.5541 36.9207L19.6443 36.8299L19.5635 36.7497L19.6938 36.6185L19.7846 36.7087L19.8748 36.6179L19.7739 36.5177L19.8942 36.3966L20.096 36.597C20.1364 36.6371 20.1365 36.6773 20.1064 36.7076L19.6655 37.1516C19.6354 37.1819 19.5852 37.1921 19.5549 37.1621L19.3531 36.9616ZM20.0865 36.768L20.7625 37.3791L20.3316 37.8131L19.7057 37.1314L20.0765 36.758" fill="#FFFF00"/>
<path d="M20.0865 36.768L20.7625 37.3791L20.3316 37.8131L19.7057 37.1314L20.0765 36.758M21.2198 38.7352C20.8867 38.4045 21.0264 38.0822 21.0264 38.0822C21.0264 38.0822 21.3578 37.9503 21.6808 38.271L21.2198 38.7352ZM19.7303 38.4186L21.3638 36.7736C21.3938 36.7433 21.4643 36.7531 21.5046 36.7932C21.5349 36.8233 21.5351 36.8836 21.505 36.9139L19.8715 38.5589C19.8415 38.5891 19.7811 38.5893 19.7408 38.5493C19.7105 38.5192 19.7103 38.4589 19.7404 38.4286L19.7303 38.4186ZM19.9217 38.5285L21.465 36.9744C21.4951 36.9441 21.5554 36.9439 21.5958 36.984C21.6362 37.0241 21.6364 37.0844 21.6063 37.1147L20.053 38.6789C20.0129 38.7193 19.9626 38.7094 19.9222 38.6693C19.8818 38.6292 19.8716 38.579 19.9117 38.5386L19.9217 38.5285ZM19.3531 36.9616L19.4733 36.8405L19.5541 36.9207L19.6443 36.8299L19.5635 36.7497L19.6938 36.6185L19.7846 36.7087L19.8748 36.6179L19.7739 36.5177L19.8942 36.3966L20.096 36.597C20.1364 36.6371 20.1365 36.6773 20.1064 36.7076L19.6655 37.1516C19.6354 37.1819 19.5852 37.1921 19.5549 37.1621L19.3531 36.9616Z" stroke="black" stroke-width="0.0711113"/>
<path d="M19.8681 37.5934L20.2113 37.9341L19.8104 38.3378L19.4673 37.9971L19.8681 37.5934Z" fill="#FFFF00" stroke="black" stroke-width="0.0711113"/>
<path d="M19.8681 37.5934L20.2113 37.9341L19.8104 38.3378L19.4673 37.9971L19.8681 37.5934Z" fill="#FFFF00" stroke="black" stroke-width="0.0711113"/>
<path d="M19.1348 37.8071L19.255 37.686L19.3559 37.7862L19.4461 37.6954L19.3452 37.5952L19.4655 37.4741L19.5664 37.5743L19.6566 37.4835L19.5557 37.3833L19.6759 37.2622L19.8778 37.4626C19.9181 37.5027 19.9183 37.5429 19.8882 37.5732L19.4573 38.0071C19.4413 38.0232 19.4197 38.0323 19.397 38.0323C19.3744 38.0324 19.3527 38.0235 19.3366 38.0076L19.1348 37.8071Z" fill="#FFFF00" stroke="black" stroke-width="0.0711113"/>
<path d="M19.1348 37.8071L19.255 37.686L19.3559 37.7862L19.4461 37.6954L19.3452 37.5952L19.4655 37.4741L19.5664 37.5743L19.6566 37.4835L19.5557 37.3833L19.6759 37.2622L19.8778 37.4626C19.9181 37.5027 19.9183 37.5429 19.8882 37.5732L19.4573 38.0071C19.4413 38.0232 19.4197 38.0323 19.397 38.0323C19.3744 38.0324 19.3527 38.0235 19.3366 38.0076L19.1348 37.8071Z" fill="#FFFF00" stroke="black" stroke-width="0.0711113"/>
<path d="M20.0581 37.2009C19.9976 37.1407 20.0878 37.0499 20.1483 37.11L20.3098 37.2704L20.2196 37.3612L20.0581 37.2009Z" fill="black"/>
<path d="M19.749 37.9562C19.6885 37.8961 19.7686 37.8154 19.8292 37.8755L19.9503 37.9958L19.8701 38.0765L19.749 37.9562Z" fill="black"/>
<path d="M19.749 37.9562C19.6885 37.8961 19.7686 37.8154 19.8292 37.8755L19.9503 37.9958L19.8701 38.0765L19.749 37.9562Z" fill="black"/>
<path d="M18.5132 25.5091C18.5274 24.7269 19.0821 24.542 19.0821 24.542C19.0963 24.542 19.6936 24.7411 19.6936 25.5233H18.5132" fill="#FFFF00"/>
<path d="M18.0298 24.5562L17.9302 25.4522H18.5276C18.5276 24.7127 19.0965 24.5989 19.0965 24.5989C19.1107 24.5989 19.6654 24.7553 19.6796 25.4522H20.2769L20.1631 24.542H18.0298V24.5562ZM17.8876 25.4664H20.3054C20.348 25.4664 20.3907 25.5091 20.3907 25.566C20.3907 25.6371 20.348 25.6798 20.3054 25.6798H17.8876C17.8449 25.6798 17.8022 25.6371 17.8022 25.566C17.8022 25.5091 17.8449 25.4664 17.9018 25.4664H17.8876Z" fill="#FFFF00" stroke="black" stroke-width="0.0711113"/>
<path d="M18.7696 25.4522C18.7696 24.9829 19.0967 24.8549 19.0967 24.8549C19.0967 24.8549 19.4238 24.9971 19.4238 25.4522H18.7696ZM17.9447 24.1722H20.2629C20.3056 24.1722 20.3483 24.2291 20.3483 24.286C20.3483 24.3287 20.3056 24.3713 20.2629 24.3713H17.9447C17.902 24.3713 17.8594 24.3287 17.8594 24.2718C17.8594 24.2291 17.902 24.1864 17.9447 24.1864V24.1722ZM18.0016 24.3855H20.1918C20.2345 24.3855 20.2772 24.4282 20.2772 24.4851C20.2772 24.542 20.2345 24.5847 20.1918 24.5847H17.9874C17.9305 24.5847 17.902 24.542 17.902 24.4851C17.902 24.4282 17.9305 24.3855 17.9874 24.3855H18.0016ZM18.7127 22.878H18.8834V22.9918H19.0114V22.878H19.1963V23.006H19.3243V22.8638H19.4949V23.1482C19.4949 23.2051 19.4665 23.2335 19.4238 23.2335H18.798C18.7554 23.2335 18.7127 23.2051 18.7127 23.1624V22.878ZM19.3669 23.262L19.4096 24.1722H18.798L18.8407 23.2478H19.3669" fill="#FFFF00"/>
<path d="M19.3669 23.262L19.4096 24.1722H18.798L18.8407 23.2478H19.3669M18.7696 25.4522C18.7696 24.9829 19.0967 24.8549 19.0967 24.8549C19.0967 24.8549 19.4238 24.9971 19.4238 25.4522H18.7696ZM17.9447 24.1722H20.2629C20.3056 24.1722 20.3483 24.2291 20.3483 24.286C20.3483 24.3287 20.3056 24.3713 20.2629 24.3713H17.9447C17.902 24.3713 17.8594 24.3287 17.8594 24.2718C17.8594 24.2291 17.902 24.1864 17.9447 24.1864V24.1722ZM18.0016 24.3855H20.1918C20.2345 24.3855 20.2772 24.4282 20.2772 24.4851C20.2772 24.542 20.2345 24.5847 20.1918 24.5847H17.9874C17.9305 24.5847 17.902 24.542 17.902 24.4851C17.902 24.4282 17.9305 24.3855 17.9874 24.3855H18.0016ZM18.7127 22.878H18.8834V22.9918H19.0114V22.878H19.1963V23.006H19.3243V22.8638H19.4949V23.1482C19.4949 23.2051 19.4665 23.2335 19.4238 23.2335H18.798C18.7554 23.2335 18.7127 23.2051 18.7127 23.1624V22.878Z" stroke="black" stroke-width="0.0711113"/>
<path d="M18.627 23.6885V24.172H18.0581V23.6885H18.627Z" fill="#FFFF00" stroke="black" stroke-width="0.0711113"/>
<path d="M18.627 23.6885V24.172H18.0581V23.6885H18.627Z" fill="#FFFF00" stroke="black" stroke-width="0.0711113"/>
<path d="M17.9585 23.3188H18.1292V23.4611H18.2572V23.3188H18.4278V23.4611H18.5558V23.3188H18.7265V23.6033C18.7265 23.6602 18.6981 23.6886 18.6554 23.6886H18.0438C18.0212 23.6886 17.9995 23.6796 17.9835 23.6636C17.9675 23.6476 17.9585 23.6259 17.9585 23.6033V23.3188Z" fill="#FFFF00" stroke="black" stroke-width="0.0711113"/>
<path d="M17.9585 23.3188H18.1292V23.4611H18.2572V23.3188H18.4278V23.4611H18.5558V23.3188H18.7265V23.6033C18.7265 23.6602 18.6981 23.6886 18.6554 23.6886H18.0438C18.0212 23.6886 17.9995 23.6796 17.9835 23.6636C17.9675 23.6476 17.9585 23.6259 17.9585 23.6033V23.3188Z" fill="#FFFF00" stroke="black" stroke-width="0.0711113"/>
<path d="M19.0396 23.5464C19.0396 23.4611 19.1676 23.4611 19.1676 23.5464V23.774H19.0396V23.5464Z" fill="black"/>
<path d="M18.2856 23.8594C18.2856 23.7741 18.3994 23.7741 18.3994 23.8594V24.0301H18.2856V23.8594Z" fill="black"/>
<path d="M18.2856 23.8594C18.2856 23.7741 18.3994 23.7741 18.3994 23.8594V24.0301H18.2856V23.8594Z" fill="black"/>
<path d="M32.6504 25.5091C32.6362 24.7269 32.0815 24.542 32.0815 24.542C32.0673 24.542 31.4699 24.7411 31.4699 25.5233H32.6504" fill="#FFFF00"/>
<path d="M33.1338 24.5562L33.2333 25.4522H32.636C32.636 24.7127 32.0671 24.5989 32.0671 24.5989C32.0529 24.5989 31.4982 24.7553 31.484 25.4522H30.8867L31.0004 24.542H33.1338V24.5562ZM33.276 25.4664H30.8582C30.8155 25.4664 30.7729 25.5091 30.7729 25.566C30.7729 25.6371 30.8155 25.6798 30.8582 25.6798H33.276C33.3187 25.6798 33.3613 25.6371 33.3613 25.566C33.3613 25.5091 33.3187 25.4664 33.2618 25.4664H33.276Z" fill="#FFFF00" stroke="black" stroke-width="0.0711113"/>
<path d="M32.3945 25.4522C32.3945 24.9829 32.0674 24.8549 32.0674 24.8549C32.0674 24.8549 31.7402 24.9971 31.7402 25.4522H32.3945ZM33.2194 24.1722H30.9011C30.8585 24.1722 30.8158 24.2291 30.8158 24.286C30.8158 24.3287 30.8585 24.3713 30.9011 24.3713H33.2194C33.262 24.3713 33.3047 24.3287 33.3047 24.2718C33.3047 24.2291 33.262 24.1864 33.2194 24.1864V24.1722ZM33.1625 24.3855H30.9722C30.9296 24.3855 30.8869 24.4282 30.8869 24.4851C30.8869 24.542 30.9296 24.5847 30.9722 24.5847H33.1767C33.2336 24.5847 33.262 24.542 33.262 24.4851C33.262 24.4282 33.2336 24.3855 33.1767 24.3855H33.1625ZM32.4514 22.878H32.2807V22.9918H32.1527V22.878H31.9678V23.006H31.8398V22.8638H31.6691V23.1482C31.6691 23.2051 31.6976 23.2335 31.7402 23.2335H32.366C32.4087 23.2335 32.4514 23.2051 32.4514 23.1624V22.878ZM31.7971 23.262L31.7545 24.1722H32.366L32.3234 23.2478H31.7971" fill="#FFFF00"/>
<path d="M31.7971 23.262L31.7545 24.1722H32.366L32.3234 23.2478H31.7971M32.3945 25.4522C32.3945 24.9829 32.0674 24.8549 32.0674 24.8549C32.0674 24.8549 31.7402 24.9971 31.7402 25.4522H32.3945ZM33.2194 24.1722H30.9011C30.8585 24.1722 30.8158 24.2291 30.8158 24.286C30.8158 24.3287 30.8585 24.3713 30.9011 24.3713H33.2194C33.262 24.3713 33.3047 24.3287 33.3047 24.2718C33.3047 24.2291 33.262 24.1864 33.2194 24.1864V24.1722ZM33.1625 24.3855H30.9722C30.9296 24.3855 30.8869 24.4282 30.8869 24.4851C30.8869 24.542 30.9296 24.5847 30.9722 24.5847H33.1767C33.2336 24.5847 33.262 24.542 33.262 24.4851C33.262 24.4282 33.2336 24.3855 33.1767 24.3855H33.1625ZM32.4514 22.878H32.2807V22.9918H32.1527V22.878H31.9678V23.006H31.8398V22.8638H31.6691V23.1482C31.6691 23.2051 31.6976 23.2335 31.7402 23.2335H32.366C32.4087 23.2335 32.4514 23.2051 32.4514 23.1624V22.878Z" stroke="black" stroke-width="0.0711113"/>
<path d="M32.5366 23.6885V24.172H33.1055V23.6885H32.5366Z" fill="#FFFF00" stroke="black" stroke-width="0.0711113"/>
<path d="M32.5366 23.6885V24.172H33.1055V23.6885H32.5366Z" fill="#FFFF00" stroke="black" stroke-width="0.0711113"/>
<path d="M33.2051 23.3188H33.0344V23.4611H32.9064V23.3188H32.7357V23.4611H32.6077V23.3188H32.4371V23.6033C32.4371 23.6602 32.4655 23.6886 32.5082 23.6886H33.1197C33.1424 23.6886 33.1641 23.6796 33.1801 23.6636C33.1961 23.6476 33.2051 23.6259 33.2051 23.6033V23.3188Z" fill="#FFFF00" stroke="black" stroke-width="0.0711113"/>
<path d="M33.2051 23.3188H33.0344V23.4611H32.9064V23.3188H32.7357V23.4611H32.6077V23.3188H32.4371V23.6033C32.4371 23.6602 32.4655 23.6886 32.5082 23.6886H33.1197C33.1424 23.6886 33.1641 23.6796 33.1801 23.6636C33.1961 23.6476 33.2051 23.6259 33.2051 23.6033V23.3188Z" fill="#FFFF00" stroke="black" stroke-width="0.0711113"/>
<path d="M32.124 23.5464C32.124 23.4611 31.996 23.4611 31.996 23.5464V23.774H32.124V23.5464Z" fill="black"/>
<path d="M32.8779 23.8594C32.8779 23.7741 32.7642 23.7741 32.7642 23.8594V24.0301H32.8779V23.8594Z" fill="black"/>
<path d="M32.8779 23.8594C32.8779 23.7741 32.7642 23.7741 32.7642 23.8594V24.0301H32.8779V23.8594Z" fill="black"/>
<path d="M32.6504 25.5091C32.6362 24.7269 32.0815 24.542 32.0815 24.542C32.0673 24.542 31.4699 24.7411 31.4699 25.5233H32.6504" fill="#FFFF00"/>
<path d="M33.1338 24.5562L33.2333 25.4522H32.636C32.636 24.7127 32.0671 24.5989 32.0671 24.5989C32.0529 24.5989 31.4982 24.7553 31.484 25.4522H30.8867L31.0004 24.542H33.1338V24.5562ZM33.276 25.4664H30.8582C30.8155 25.4664 30.7729 25.5091 30.7729 25.566C30.7729 25.6371 30.8155 25.6798 30.8582 25.6798H33.276C33.3187 25.6798 33.3613 25.6371 33.3613 25.566C33.3613 25.5091 33.3187 25.4664 33.2618 25.4664H33.276Z" fill="#FFFF00" stroke="black" stroke-width="0.0711113"/>
<path d="M32.3945 25.4522C32.3945 24.9829 32.0674 24.8549 32.0674 24.8549C32.0674 24.8549 31.7402 24.9971 31.7402 25.4522H32.3945ZM33.2194 24.1722H30.9011C30.8585 24.1722 30.8158 24.2291 30.8158 24.286C30.8158 24.3287 30.8585 24.3713 30.9011 24.3713H33.2194C33.262 24.3713 33.3047 24.3287 33.3047 24.2718C33.3047 24.2291 33.262 24.1864 33.2194 24.1864V24.1722ZM33.1625 24.3855H30.9722C30.9296 24.3855 30.8869 24.4282 30.8869 24.4851C30.8869 24.542 30.9296 24.5847 30.9722 24.5847H33.1767C33.2336 24.5847 33.262 24.542 33.262 24.4851C33.262 24.4282 33.2336 24.3855 33.1767 24.3855H33.1625ZM32.4514 22.878H32.2807V22.9918H32.1527V22.878H31.9678V23.006H31.8398V22.8638H31.6691V23.1482C31.6691 23.2051 31.6976 23.2335 31.7402 23.2335H32.366C32.4087 23.2335 32.4514 23.2051 32.4514 23.1624V22.878ZM31.7971 23.262L31.7545 24.1722H32.366L32.3234 23.2478H31.7971" fill="#FFFF00"/>
<path d="M31.7971 23.262L31.7545 24.1722H32.366L32.3234 23.2478H31.7971M32.3945 25.4522C32.3945 24.9829 32.0674 24.8549 32.0674 24.8549C32.0674 24.8549 31.7402 24.9971 31.7402 25.4522H32.3945ZM33.2194 24.1722H30.9011C30.8585 24.1722 30.8158 24.2291 30.8158 24.286C30.8158 24.3287 30.8585 24.3713 30.9011 24.3713H33.2194C33.262 24.3713 33.3047 24.3287 33.3047 24.2718C33.3047 24.2291 33.262 24.1864 33.2194 24.1864V24.1722ZM33.1625 24.3855H30.9722C30.9296 24.3855 30.8869 24.4282 30.8869 24.4851C30.8869 24.542 30.9296 24.5847 30.9722 24.5847H33.1767C33.2336 24.5847 33.262 24.542 33.262 24.4851C33.262 24.4282 33.2336 24.3855 33.1767 24.3855H33.1625ZM32.4514 22.878H32.2807V22.9918H32.1527V22.878H31.9678V23.006H31.8398V22.8638H31.6691V23.1482C31.6691 23.2051 31.6976 23.2335 31.7402 23.2335H32.366C32.4087 23.2335 32.4514 23.2051 32.4514 23.1624V22.878Z" stroke="black" stroke-width="0.0711113"/>
<path d="M32.5366 23.6885V24.172H33.1055V23.6885H32.5366Z" fill="#FFFF00" stroke="black" stroke-width="0.0711113"/>
<path d="M32.5366 23.6885V24.172H33.1055V23.6885H32.5366Z" fill="#FFFF00" stroke="black" stroke-width="0.0711113"/>
<path d="M33.2051 23.3188H33.0344V23.4611H32.9064V23.3188H32.7357V23.4611H32.6077V23.3188H32.4371V23.6033C32.4371 23.6602 32.4655 23.6886 32.5082 23.6886H33.1197C33.1424 23.6886 33.1641 23.6796 33.1801 23.6636C33.1961 23.6476 33.2051 23.6259 33.2051 23.6033V23.3188Z" fill="#FFFF00" stroke="black" stroke-width="0.0711113"/>
<path d="M33.2051 23.3188H33.0344V23.4611H32.9064V23.3188H32.7357V23.4611H32.6077V23.3188H32.4371V23.6033C32.4371 23.6602 32.4655 23.6886 32.5082 23.6886H33.1197C33.1424 23.6886 33.1641 23.6796 33.1801 23.6636C33.1961 23.6476 33.2051 23.6259 33.2051 23.6033V23.3188Z" fill="#FFFF00" stroke="black" stroke-width="0.0711113"/>
<path d="M32.124 23.5464C32.124 23.4611 31.996 23.4611 31.996 23.5464V23.774H32.124V23.5464Z" fill="black"/>
<path d="M32.8779 23.8594C32.8779 23.7741 32.7642 23.7741 32.7642 23.8594V24.0301H32.8779V23.8594Z" fill="black"/>
<path d="M32.8779 23.8594C32.8779 23.7741 32.7642 23.7741 32.7642 23.8594V24.0301H32.8779V23.8594Z" fill="black"/>
<path d="M30.0838 38.9569C30.6288 38.3956 30.3692 37.8717 30.3692 37.8717C30.3591 37.8616 29.797 37.5781 29.2419 38.1293L30.0737 38.9669" fill="#FFFF00"/>
<path d="M31.1006 38.6288L30.5349 39.3308L30.114 38.907C30.6388 38.3859 30.3187 37.902 30.3187 37.902C30.3087 37.8919 29.8068 37.6086 29.3023 38.0895L28.8814 37.6657L29.6074 37.1051L31.1107 38.6188L31.1006 38.6288ZM30.5549 39.3711L28.8513 37.6555C28.8212 37.6253 28.7609 37.625 28.7205 37.6651C28.67 37.7152 28.6698 37.7756 28.6999 37.8059L30.4035 39.5214C30.4336 39.5517 30.4939 39.5519 30.5444 39.5018C30.5848 39.4617 30.585 39.4014 30.5449 39.361L30.5549 39.3711Z" fill="#FFFF00" stroke="black" stroke-width="0.0711113"/>
<path d="M29.9438 38.7352C30.2768 38.4045 30.1372 38.0822 30.1372 38.0822C30.1372 38.0822 29.8058 37.9503 29.4828 38.271L29.9438 38.7352ZM31.4333 38.4186L29.7998 36.7736C29.7697 36.7433 29.6993 36.7531 29.6589 36.7932C29.6287 36.8233 29.6285 36.8836 29.6585 36.9139L31.292 38.5589C31.3221 38.5891 31.3824 38.5893 31.4228 38.5493C31.4531 38.5192 31.4533 38.4589 31.4232 38.4286L31.4333 38.4186ZM31.2418 38.5285L29.6985 36.9744C29.6685 36.9441 29.6081 36.9439 29.5678 36.984C29.5274 37.0241 29.5272 37.0844 29.5573 37.1147L31.1106 38.6789C31.1507 38.7193 31.201 38.7094 31.2414 38.6693C31.2817 38.6292 31.292 38.579 31.2519 38.5386L31.2418 38.5285ZM31.8105 36.9616L31.6902 36.8405L31.6095 36.9207L31.5193 36.8299L31.6 36.7497L31.4698 36.6185L31.3789 36.7087L31.2887 36.6179L31.3897 36.5177L31.2694 36.3966L31.0676 36.597C31.0272 36.6371 31.0271 36.6773 31.0571 36.7076L31.4981 37.1516C31.5281 37.1819 31.5784 37.1921 31.6087 37.1621L31.8105 36.9616ZM31.077 36.768L30.4011 37.3791L30.832 37.8131L31.4579 37.1314L31.0871 36.758" fill="#FFFF00"/>
<path d="M31.077 36.768L30.4011 37.3791L30.832 37.8131L31.4579 37.1314L31.0871 36.758M29.9438 38.7352C30.2768 38.4045 30.1372 38.0822 30.1372 38.0822C30.1372 38.0822 29.8058 37.9503 29.4828 38.271L29.9438 38.7352ZM31.4333 38.4186L29.7998 36.7736C29.7697 36.7433 29.6993 36.7531 29.6589 36.7932C29.6287 36.8233 29.6285 36.8836 29.6585 36.9139L31.292 38.5589C31.3221 38.5891 31.3824 38.5893 31.4228 38.5493C31.4531 38.5192 31.4533 38.4589 31.4232 38.4286L31.4333 38.4186ZM31.2418 38.5285L29.6985 36.9744C29.6685 36.9441 29.6081 36.9439 29.5678 36.984C29.5274 37.0241 29.5272 37.0844 29.5573 37.1147L31.1106 38.6789C31.1507 38.7193 31.201 38.7094 31.2414 38.6693C31.2817 38.6292 31.292 38.579 31.2519 38.5386L31.2418 38.5285ZM31.8105 36.9616L31.6902 36.8405L31.6095 36.9207L31.5193 36.8299L31.6 36.7497L31.4698 36.6185L31.3789 36.7087L31.2887 36.6179L31.3897 36.5177L31.2694 36.3966L31.0676 36.597C31.0272 36.6371 31.0271 36.6773 31.0571 36.7076L31.4981 37.1516C31.5281 37.1819 31.5784 37.1921 31.6087 37.1621L31.8105 36.9616Z" stroke="black" stroke-width="0.0711113"/>
<path d="M31.2954 37.5934L30.9523 37.9341L31.3532 38.3378L31.6963 37.9971L31.2954 37.5934Z" fill="#FFFF00" stroke="black" stroke-width="0.0711113"/>
<path d="M31.2954 37.5934L30.9523 37.9341L31.3532 38.3378L31.6963 37.9971L31.2954 37.5934Z" fill="#FFFF00" stroke="black" stroke-width="0.0711113"/>
<path d="M32.0288 37.8071L31.9086 37.686L31.8076 37.7862L31.7174 37.6954L31.8184 37.5952L31.6981 37.4741L31.5972 37.5743L31.507 37.4835L31.6079 37.3833L31.4876 37.2622L31.2858 37.4626C31.2454 37.5027 31.2453 37.5429 31.2754 37.5732L31.7063 38.0071C31.7222 38.0232 31.7439 38.0323 31.7665 38.0323C31.7892 38.0324 31.8109 38.0235 31.827 38.0076L32.0288 37.8071Z" fill="#FFFF00" stroke="black" stroke-width="0.0711113"/>
<path d="M32.0288 37.8071L31.9086 37.686L31.8076 37.7862L31.7174 37.6954L31.8184 37.5952L31.6981 37.4741L31.5972 37.5743L31.507 37.4835L31.6079 37.3833L31.4876 37.2622L31.2858 37.4626C31.2454 37.5027 31.2453 37.5429 31.2754 37.5732L31.7063 38.0071C31.7222 38.0232 31.7439 38.0323 31.7665 38.0323C31.7892 38.0324 31.8109 38.0235 31.827 38.0076L32.0288 37.8071Z" fill="#FFFF00" stroke="black" stroke-width="0.0711113"/>
<path d="M31.1055 37.2009C31.166 37.1407 31.0758 37.0499 31.0153 37.11L30.8538 37.2704L30.944 37.3612L31.1055 37.2009Z" fill="black"/>
<path d="M31.4145 37.9562C31.4751 37.8961 31.3949 37.8154 31.3344 37.8755L31.2133 37.9958L31.2934 38.0765L31.4145 37.9562Z" fill="black"/>
<path d="M31.4145 37.9562C31.4751 37.8961 31.3949 37.8154 31.3344 37.8755L31.2133 37.9958L31.2934 38.0765L31.4145 37.9562Z" fill="black"/>
<path d="M24.5435 32.3358C24.5409 32.636 24.6528 32.9259 24.8564 33.1465C24.9514 33.2527 25.0675 33.3379 25.1973 33.3967C25.3271 33.4554 25.4677 33.4865 25.6102 33.4878C25.9088 33.4878 26.1791 33.3456 26.3639 33.1465C26.5675 32.9259 26.6794 32.636 26.6768 32.3358V30.7998H24.5435V32.3358Z" fill="#003399"/>
<path d="M25.0415 31.5961C25.1593 31.5961 25.2548 31.5006 25.2548 31.3828C25.2548 31.2649 25.1593 31.1694 25.0415 31.1694C24.9236 31.1694 24.8281 31.2649 24.8281 31.3828C24.8281 31.5006 24.9236 31.5961 25.0415 31.5961Z" fill="white"/>
<path d="M26.2216 31.5961C26.3395 31.5961 26.435 31.5006 26.435 31.3828C26.435 31.2649 26.3395 31.1694 26.2216 31.1694C26.1038 31.1694 26.0083 31.2649 26.0083 31.3828C26.0083 31.5006 26.1038 31.5961 26.2216 31.5961Z" fill="white"/>
<path d="M25.6245 32.1649C25.7423 32.1649 25.8378 32.0694 25.8378 31.9516C25.8378 31.8338 25.7423 31.7383 25.6245 31.7383C25.5066 31.7383 25.4111 31.8338 25.4111 31.9516C25.4111 32.0694 25.5066 32.1649 25.6245 32.1649Z" fill="white"/>
<path d="M25.0415 32.7626C25.1593 32.7626 25.2548 32.6671 25.2548 32.5493C25.2548 32.4315 25.1593 32.3359 25.0415 32.3359C24.9236 32.3359 24.8281 32.4315 24.8281 32.5493C24.8281 32.6671 24.9236 32.7626 25.0415 32.7626Z" fill="white"/>
<path d="M26.2216 32.7626C26.3395 32.7626 26.435 32.6671 26.435 32.5493C26.435 32.4315 26.3395 32.3359 26.2216 32.3359C26.1038 32.3359 26.0083 32.4315 26.0083 32.5493C26.0083 32.6671 26.1038 32.7626 26.2216 32.7626Z" fill="white"/>
<path d="M24.5435 32.3358C24.5409 32.636 24.6528 32.9259 24.8564 33.1465C24.9514 33.2527 25.0675 33.3379 25.1973 33.3967C25.3271 33.4554 25.4677 33.4865 25.6102 33.4878C25.9088 33.4878 26.1791 33.3456 26.3639 33.1465C26.5675 32.9259 26.6794 32.636 26.6768 32.3358V30.7998H24.5435V32.3358Z" fill="#003399"/>
<path d="M25.0415 31.5961C25.1593 31.5961 25.2548 31.5006 25.2548 31.3828C25.2548 31.2649 25.1593 31.1694 25.0415 31.1694C24.9236 31.1694 24.8281 31.2649 24.8281 31.3828C24.8281 31.5006 24.9236 31.5961 25.0415 31.5961Z" fill="white"/>
<path d="M26.2216 31.5961C26.3395 31.5961 26.435 31.5006 26.435 31.3828C26.435 31.2649 26.3395 31.1694 26.2216 31.1694C26.1038 31.1694 26.0083 31.2649 26.0083 31.3828C26.0083 31.5006 26.1038 31.5961 26.2216 31.5961Z" fill="white"/>
<path d="M25.6245 32.1649C25.7423 32.1649 25.8378 32.0694 25.8378 31.9516C25.8378 31.8338 25.7423 31.7383 25.6245 31.7383C25.5066 31.7383 25.4111 31.8338 25.4111 31.9516C25.4111 32.0694 25.5066 32.1649 25.6245 32.1649Z" fill="white"/>
<path d="M25.0415 32.7626C25.1593 32.7626 25.2548 32.6671 25.2548 32.5493C25.2548 32.4315 25.1593 32.3359 25.0415 32.3359C24.9236 32.3359 24.8281 32.4315 24.8281 32.5493C24.8281 32.6671 24.9236 32.7626 25.0415 32.7626Z" fill="white"/>
<path d="M26.2216 32.7626C26.3395 32.7626 26.435 32.6671 26.435 32.5493C26.435 32.4315 26.3395 32.3359 26.2216 32.3359C26.1038 32.3359 26.0083 32.4315 26.0083 32.5493C26.0083 32.6671 26.1038 32.7626 26.2216 32.7626Z" fill="white"/>
<path d="M24.5435 32.3358C24.5409 32.636 24.6528 32.9259 24.8564 33.1465C24.9514 33.2527 25.0675 33.3379 25.1973 33.3967C25.3271 33.4554 25.4677 33.4865 25.6102 33.4878C25.9088 33.4878 26.1791 33.3456 26.3639 33.1465C26.5675 32.9259 26.6794 32.636 26.6768 32.3358V30.7998H24.5435V32.3358Z" fill="#003399"/>
<path d="M25.0415 31.5961C25.1593 31.5961 25.2548 31.5006 25.2548 31.3828C25.2548 31.2649 25.1593 31.1694 25.0415 31.1694C24.9236 31.1694 24.8281 31.2649 24.8281 31.3828C24.8281 31.5006 24.9236 31.5961 25.0415 31.5961Z" fill="white"/>
<path d="M26.2216 31.5961C26.3395 31.5961 26.435 31.5006 26.435 31.3828C26.435 31.2649 26.3395 31.1694 26.2216 31.1694C26.1038 31.1694 26.0083 31.2649 26.0083 31.3828C26.0083 31.5006 26.1038 31.5961 26.2216 31.5961Z" fill="white"/>
<path d="M25.6245 32.1649C25.7423 32.1649 25.8378 32.0694 25.8378 31.9516C25.8378 31.8338 25.7423 31.7383 25.6245 31.7383C25.5066 31.7383 25.4111 31.8338 25.4111 31.9516C25.4111 32.0694 25.5066 32.1649 25.6245 32.1649Z" fill="white"/>
<path d="M25.0415 32.7626C25.1593 32.7626 25.2548 32.6671 25.2548 32.5493C25.2548 32.4315 25.1593 32.3359 25.0415 32.3359C24.9236 32.3359 24.8281 32.4315 24.8281 32.5493C24.8281 32.6671 24.9236 32.7626 25.0415 32.7626Z" fill="white"/>
<path d="M26.2216 32.7626C26.3395 32.7626 26.435 32.6671 26.435 32.5493C26.435 32.4315 26.3395 32.3359 26.2216 32.3359C26.1038 32.3359 26.0083 32.4315 26.0083 32.5493C26.0083 32.6671 26.1038 32.7626 26.2216 32.7626Z" fill="white"/>
<path d="M24.5435 32.3358C24.5409 32.636 24.6528 32.9259 24.8564 33.1465C24.9514 33.2527 25.0675 33.3379 25.1973 33.3967C25.3271 33.4554 25.4677 33.4865 25.6102 33.4878C25.9088 33.4878 26.1791 33.3456 26.3639 33.1465C26.5675 32.9259 26.6794 32.636 26.6768 32.3358V30.7998H24.5435V32.3358Z" fill="#003399"/>
<path d="M25.0415 31.5961C25.1593 31.5961 25.2548 31.5006 25.2548 31.3828C25.2548 31.2649 25.1593 31.1694 25.0415 31.1694C24.9236 31.1694 24.8281 31.2649 24.8281 31.3828C24.8281 31.5006 24.9236 31.5961 25.0415 31.5961Z" fill="white"/>
<path d="M26.2216 31.5961C26.3395 31.5961 26.435 31.5006 26.435 31.3828C26.435 31.2649 26.3395 31.1694 26.2216 31.1694C26.1038 31.1694 26.0083 31.2649 26.0083 31.3828C26.0083 31.5006 26.1038 31.5961 26.2216 31.5961Z" fill="white"/>
<path d="M25.6245 32.1649C25.7423 32.1649 25.8378 32.0694 25.8378 31.9516C25.8378 31.8338 25.7423 31.7383 25.6245 31.7383C25.5066 31.7383 25.4111 31.8338 25.4111 31.9516C25.4111 32.0694 25.5066 32.1649 25.6245 32.1649Z" fill="white"/>
<path d="M25.0415 32.7626C25.1593 32.7626 25.2548 32.6671 25.2548 32.5493C25.2548 32.4315 25.1593 32.3359 25.0415 32.3359C24.9236 32.3359 24.8281 32.4315 24.8281 32.5493C24.8281 32.6671 24.9236 32.7626 25.0415 32.7626Z" fill="white"/>
<path d="M26.2216 32.7626C26.3395 32.7626 26.435 32.6671 26.435 32.5493C26.435 32.4315 26.3395 32.3359 26.2216 32.3359C26.1038 32.3359 26.0083 32.4315 26.0083 32.5493C26.0083 32.6671 26.1038 32.7626 26.2216 32.7626Z" fill="white"/>
<path d="M24.5435 32.3358C24.5409 32.636 24.6528 32.9259 24.8564 33.1465C24.9514 33.2527 25.0675 33.3379 25.1973 33.3967C25.3271 33.4554 25.4677 33.4865 25.6102 33.4878C25.9088 33.4878 26.1791 33.3456 26.3639 33.1465C26.5675 32.9259 26.6794 32.636 26.6768 32.3358V30.7998H24.5435V32.3358Z" fill="#003399"/>
<path d="M25.0415 31.5961C25.1593 31.5961 25.2548 31.5006 25.2548 31.3828C25.2548 31.2649 25.1593 31.1694 25.0415 31.1694C24.9236 31.1694 24.8281 31.2649 24.8281 31.3828C24.8281 31.5006 24.9236 31.5961 25.0415 31.5961Z" fill="white"/>
<path d="M26.2216 31.5961C26.3395 31.5961 26.435 31.5006 26.435 31.3828C26.435 31.2649 26.3395 31.1694 26.2216 31.1694C26.1038 31.1694 26.0083 31.2649 26.0083 31.3828C26.0083 31.5006 26.1038 31.5961 26.2216 31.5961Z" fill="white"/>
<path d="M25.6245 32.1649C25.7423 32.1649 25.8378 32.0694 25.8378 31.9516C25.8378 31.8338 25.7423 31.7383 25.6245 31.7383C25.5066 31.7383 25.4111 31.8338 25.4111 31.9516C25.4111 32.0694 25.5066 32.1649 25.6245 32.1649Z" fill="white"/>
<path d="M25.0415 32.7626C25.1593 32.7626 25.2548 32.6671 25.2548 32.5493C25.2548 32.4315 25.1593 32.3359 25.0415 32.3359C24.9236 32.3359 24.8281 32.4315 24.8281 32.5493C24.8281 32.6671 24.9236 32.7626 25.0415 32.7626Z" fill="white"/>
<path d="M26.2216 32.7626C26.3395 32.7626 26.435 32.6671 26.435 32.5493C26.435 32.4315 26.3395 32.3359 26.2216 32.3359C26.1038 32.3359 26.0083 32.4315 26.0083 32.5493C26.0083 32.6671 26.1038 32.7626 26.2216 32.7626Z" fill="white"/>
</g>
<defs>
<clipPath id="clip0_6271_25464">
<rect width="64" height="64" fill="white"/>
</clipPath>
</defs>
</svg>
