<svg width="64" height="64" viewBox="0 0 64 64" fill="none" xmlns="http://www.w3.org/2000/svg">
<g clip-path="url(#clip0_3478_29039)">
<path d="M16 0H0V64H16V0Z" fill="white"/>
<path d="M64 0H16V64H64V0Z" fill="#01411C"/>
<path d="M45.1397 21.764L47.2882 24.2284L50.2959 22.9465L48.6161 25.7514L50.7646 28.2158L47.5779 27.485L45.8981 30.2899L45.6084 27.0333L42.4217 26.3024L45.4294 25.0206L45.1397 21.764Z" fill="white"/>
<path fill-rule="evenodd" clip-rule="evenodd" d="M53.4161 36.4398C51.2183 39.2177 47.8173 41.0001 44 41.0001C37.3726 41.0001 32 35.6275 32 29.0001C32 25.1828 33.7824 21.7818 36.5603 19.584C31.0263 21.2698 27 26.4148 27 32.5001C27 39.9559 33.0442 46.0001 40.5 46.0001C46.5853 46.0001 51.7303 41.9738 53.4161 36.4398Z" fill="white"/>
</g>
<defs>
<clipPath id="clip0_3478_29039">
<rect width="64" height="64" fill="white"/>
</clipPath>
</defs>
</svg>
