<svg width="64" height="64" viewBox="0 0 64 64" fill="none" xmlns="http://www.w3.org/2000/svg">
<g clip-path="url(#clip0_3478_29041)">
<path d="M0 0H64V64H0V0Z" fill="#DE2910"/>
<path d="M25.6 13.1199L9.28002 23.6799L16 6.3999L21.76 23.6799L6.40002 13.1199H25.6Z" fill="#FFDE00"/>
<path d="M29.5721 4.13104L35.3872 6.97917L29.3004 8.02503L33.2461 3.41577L32.8661 9.61321L29.5721 4.13104Z" fill="#FFDE00"/>
<path d="M36.9837 9.77596L41.2351 14.6657L35.217 13.2597L40.649 10.5472L37.8855 16.1121L36.9837 9.77596Z" fill="#FFDE00"/>
<path d="M38.3217 19.0664L40.2069 25.2692L35.2849 21.5263L41.3542 21.2682L36.5567 25.2218L38.3217 19.0664Z" fill="#FFDE00"/>
<path d="M33.2512 25.7039L32.5968 32.1471L29.504 26.7999L35.1968 28.9023L29.2512 30.6959L33.2512 25.7039Z" fill="#FFDE00"/>
</g>
<defs>
<clipPath id="clip0_3478_29041">
<rect width="64" height="64" fill="white"/>
</clipPath>
</defs>
</svg>
